<?xml version="1.0" encoding="UTF-8" standalone="no"?>
<svg
   xmlns:dc="http://purl.org/dc/elements/1.1/"
   xmlns:cc="http://creativecommons.org/ns#"
   xmlns:rdf="http://www.w3.org/1999/02/22-rdf-syntax-ns#"
   xmlns:svg="http://www.w3.org/2000/svg"
   xmlns="http://www.w3.org/2000/svg"
   viewBox="0 0 50.902774 61.4315"
   height="61.431499"
   width="50.902775"
   id="svg10"
   version="1.1">
  <metadata
     id="metadata16">
    <rdf:RDF>
      <cc:Work
         rdf:about="">
        <dc:format>image/svg+xml</dc:format>
        <dc:type
           rdf:resource="http://purl.org/dc/dcmitype/StillImage" />
        <dc:title></dc:title>
      </cc:Work>
    </rdf:RDF>
  </metadata>
  <defs
     id="defs14" />
  <g
     transform="translate(7.2151701,-2.7045977)"
     id="g18">
    <g
       transform="translate(-7.5226349,2.1180236)"
       id="g22">
      <path
         id="path138"
         d="m 20.56609,61.858245 c 0.31135,-0.08113 0.74335,-0.0758 0.96,0.01187 0.21665,0.08766 -0.03809,0.154039 -0.56609,0.147517 -0.528,-0.0065 -0.70526,-0.07824 -0.39391,-0.159373 z m 9.6,0 c 0.31135,-0.08113 0.74335,-0.0758 0.96,0.01187 0.21665,0.08766 -0.03809,0.154039 -0.56609,0.147517 -0.528,-0.0065 -0.70526,-0.07824 -0.39391,-0.159373 z M 12.4,61.228072 c 0.22,-0.08877 0.58,-0.08877 0.8,0 0.22,0.08877 0.04,0.161405 -0.4,0.161405 -0.44,0 -0.62,-0.07263 -0.4,-0.161405 z m 25.92,0 c 0.22,-0.08877 0.58,-0.08877 0.8,0 0.22,0.08877 0.04,0.161405 -0.4,0.161405 -0.44,0 -0.62,-0.07263 -0.4,-0.161405 z m -27.5,-0.326665 c 0.231,-0.09244 0.507,-0.08107 0.613333,0.02525 0.106334,0.106333 -0.08267,0.181965 -0.42,0.16807 -0.372781,-0.01536 -0.448608,-0.09118 -0.193333,-0.193331 z m 29.44,0 c 0.230998,-0.09244 0.507002,-0.08107 0.613334,0.02525 0.106333,0.106333 -0.08267,0.181965 -0.42,0.16807 C 40.08055,61.079365 40.004726,61.003544 40.26,60.901394 Z M 0.53333334,57.386667 C 0.04946825,56.902802 0.3757585,55.742408 1.2,55.015781 l 0.88,-0.775779 -0.7604285,0.863657 c -0.52342235,0.59448 -0.71179067,1.118093 -0.60437505,1.68 0.16712384,0.874253 0.14910992,0.933981 -0.18186311,0.603008 z M 50.806656,56.773976 c 0.105293,-0.550803 -0.08699,-1.080592 -0.606227,-1.670317 L 49.44,54.240002 l 0.88,0.775779 c 0.84679,0.746506 1.175136,2.044045 0.606227,2.395651 -0.150576,0.09306 -0.204384,-0.193795 -0.119571,-0.637456 z M 10.82,51.941406 c 0.231,-0.09244 0.507,-0.08107 0.613333,0.02525 0.106334,0.106333 -0.08267,0.181965 -0.42,0.168071 -0.372781,-0.01536 -0.448608,-0.09118 -0.193333,-0.193331 z m 29.44,0 c 0.230998,-0.09244 0.507002,-0.08107 0.613334,0.02525 0.106333,0.106333 -0.08267,0.181965 -0.42,0.168071 C 40.08055,52.119365 40.004726,52.043544 40.26,51.941394 Z M 16.24,51.308072 c 0.22,-0.08877 0.58,-0.08877 0.8,0 0.22,0.08877 0.04,0.161405 -0.4,0.161405 -0.44,0 -0.62,-0.07263 -0.4,-0.161405 z m 18.24,0 c 0.22,-0.08877 0.58,-0.08877 0.8,0 0.22,0.08877 0.04,0.161405 -0.4,0.161405 -0.44,0 -0.62,-0.07263 -0.4,-0.161405 z M 21.52,50.979416 c 0.308,-0.08049 0.812,-0.08049 1.12,0 0.308,0.08049 0.056,0.146346 -0.56,0.146346 -0.616,0 -0.868,-0.06586 -0.56,-0.146346 z m 7.36,0 c 0.308,-0.08049 0.812,-0.08049 1.12,0 0.308,0.08049 0.056,0.146346 -0.56,0.146346 -0.616,0 -0.868,-0.06586 -0.56,-0.146346 z M 10.112417,28.852453 c -0.08144,-0.131778 0.129945,-0.26054 0.469752,-0.286137 0.734901,-0.05536 0.799554,0.09548 0.148079,0.345473 -0.258364,0.09914 -0.536388,0.07244 -0.617831,-0.05934 z"
         style="fill:#fefefe;stroke-width:0.32" />
      <path
         id="path136"
         d="m 23.773308,61.842402 c 1.19532,-0.06174 3.06732,-0.06128 4.16,9.6e-4 1.092681,0.0623 0.114692,0.11281 -2.173308,0.11225 -2.288,-6.4e-4 -3.182011,-0.05153 -1.986692,-0.113268 z M 16.56,61.548072 c 0.22,-0.08877 0.58,-0.08877 0.8,0 0.22,0.08877 0.04,0.161405 -0.4,0.161405 -0.44,0 -0.62,-0.07263 -0.4,-0.161405 z m 17.6,0 c 0.22,-0.08877 0.58,-0.08877 0.8,0 0.22,0.08877 0.04,0.161405 -0.4,0.161405 -0.44,0 -0.62,-0.07263 -0.4,-0.161405 z M 1.1428572,57.737144 c -0.72061195,-0.720611 -0.62027342,-1.835273 0.2377672,-2.641363 0.4073434,-0.382678 0.8587631,-0.695779 1.0031548,-0.695779 0.1443917,0 -0.1168893,0.298451 -0.5806244,0.663225 -0.96381141,0.758135 -1.08279947,1.741575 -0.3135588,2.591578 0.6464279,0.714294 0.3545323,0.78361 -0.3467388,0.08234 z m 48.8875458,-0.08234 c 0.769242,-0.850003 0.650253,-1.833443 -0.313558,-2.591578 -0.463735,-0.364774 -0.704835,-0.663225 -0.535779,-0.663225 0.547683,0 1.698934,1.462169 1.698934,2.157766 0,0.372087 -0.226285,0.902807 -0.502858,1.179376 -0.70127,0.701271 -0.993164,0.631955 -0.346739,-0.08234 z M 7.94,52.581406 c 0.231,-0.09244 0.507,-0.08107 0.6133334,0.02525 0.1063332,0.106333 -0.082667,0.181965 -0.42,0.168071 C 7.7605517,52.759365 7.6847254,52.683544 7.94,52.581394 Z m 35.2,0 c 0.230998,-0.09244 0.506998,-0.08107 0.613334,0.02525 0.106333,0.106333 -0.08267,0.181965 -0.42,0.168071 C 42.96055,52.759365 42.884726,52.683544 43.14,52.581394 Z m -33.6,-0.32 c 0.231,-0.09244 0.507,-0.08107 0.613333,0.02525 0.106334,0.106333 -0.08267,0.181965 -0.4199996,0.168071 C 9.3605517,52.439365 9.2847254,52.363544 9.54,52.261394 Z m 32,0 c 0.230998,-0.09244 0.506998,-0.08107 0.613334,0.02525 0.106333,0.106333 -0.08267,0.181965 -0.42,0.168071 C 41.36055,52.439365 41.284726,52.363544 41.54,52.261394 Z m -27.52,-0.64 c 0.231,-0.09244 0.507,-0.08107 0.613333,0.02525 0.106334,0.106333 -0.08267,0.181965 -0.42,0.168071 -0.372781,-0.01536 -0.448608,-0.09118 -0.193333,-0.193331 z m 23.04,0 c 0.230998,-0.09244 0.506998,-0.08107 0.613334,0.02525 0.106333,0.106333 -0.08267,0.181965 -0.42,0.168071 C 36.88055,51.799365 36.804726,51.723544 37.06,51.621394 Z M 17.52,51.308072 c 0.22,-0.08877 0.58,-0.08877 0.8,0 0.22,0.08877 0.04,0.161405 -0.4,0.161405 -0.44,0 -0.62,-0.07263 -0.4,-0.161405 z m 15.68,0 c 0.22,-0.08877 0.58,-0.08877 0.8,0 0.22,0.08877 0.04,0.161405 -0.4,0.161405 -0.44,0 -0.62,-0.07263 -0.4,-0.161405 z m -8.790345,-0.343677 c 0.841311,-0.06614 2.137311,-0.06534 2.88,0.0019 0.74269,0.06711 0.05435,0.121223 -1.529655,0.120247 -1.584,-9.6e-4 -2.191655,-0.05589 -1.350345,-0.12202 z"
         style="fill:#fdfdfd;stroke-width:0.32" />
      <path
         id="path134"
         d="m 17.84,61.548072 c 0.22,-0.08877 0.58,-0.08877 0.8,0 0.22,0.08877 0.04,0.161405 -0.4,0.161405 -0.44,0 -0.62,-0.07263 -0.4,-0.161405 z m 15.04,0 c 0.22,-0.08877 0.58,-0.08877 0.8,0 0.22,0.08877 0.04,0.161405 -0.4,0.161405 -0.44,0 -0.62,-0.07263 -0.4,-0.161405 z m -18.88,-0.32 c 0.22,-0.08877 0.58,-0.08877 0.8,0 0.22,0.08877 0.04,0.161405 -0.4,0.161405 -0.44,0 -0.62,-0.07263 -0.4,-0.161405 z m 22.72,0 c 0.22,-0.08877 0.58,-0.08877 0.8,0 0.22,0.08877 0.04,0.161405 -0.4,0.161405 -0.44,0 -0.62,-0.07263 -0.4,-0.161405 z M 12.1,60.901407 c 0.231,-0.09244 0.507,-0.08107 0.613333,0.02525 0.106334,0.106333 -0.08267,0.181965 -0.42,0.16807 C 11.920552,61.079365 11.844725,61.003544 12.1,60.901394 Z m 26.88,0 c 0.230998,-0.09244 0.506998,-0.08107 0.613334,0.02525 0.106333,0.106333 -0.08267,0.181965 -0.42,0.16807 C 38.80055,61.079365 38.724726,61.003544 38.98,60.901394 Z m -29.12,-0.32 c 0.231,-0.09244 0.507,-0.08107 0.613333,0.02525 0.106334,0.106333 -0.08267,0.181965 -0.42,0.16807 C 9.6805517,60.759365 9.6047254,60.683544 9.86,60.581394 Z m 31.36,0 c 0.230998,-0.09244 0.506998,-0.08107 0.613334,0.02525 0.106333,0.106333 -0.08267,0.181965 -0.42,0.16807 C 41.04055,60.759365 40.964726,60.683544 41.22,60.581394 Z m -32.96,-0.32 c 0.231,-0.09244 0.507,-0.08107 0.6133334,0.02525 0.1063332,0.106333 -0.082667,0.181965 -0.42,0.16807 C 8.0805517,60.439365 8.0047254,60.363544 8.26,60.261394 Z m 34.56,0 c 0.230998,-0.09244 0.506998,-0.08107 0.613334,0.02525 0.106333,0.106333 -0.08267,0.181965 -0.42,0.16807 C 42.64055,60.439365 42.564726,60.363544 42.82,60.261394 Z m -37.12,-0.64 c 0.231,-0.09244 0.507,-0.08107 0.6133334,0.02525 0.1063332,0.106333 -0.082667,0.181965 -0.42,0.16807 C 5.5205517,59.799365 5.4447254,59.723544 5.7,59.621394 Z m 39.68,0 c 0.230998,-0.09244 0.506998,-0.08107 0.613334,0.02525 0.106333,0.106333 -0.08267,0.181965 -0.42,0.16807 C 45.20055,59.799365 45.124726,59.723544 45.38,59.621394 Z M 2.88,58.654008 C 1.9771169,58.323954 0.96,57.169003 0.96,56.473816 c 0,-0.6752 0.6221286,-1.411222 1.6,-1.892909 0.264,-0.130044 0.138,0.04225 -0.28,0.382874 -0.9076896,0.739667 -1.026301,2.296659 -0.212281,2.786576 0.8025647,0.483024 1.6368519,1.111606 1.452281,1.094205 -0.088,-0.0083 -0.376,-0.09405 -0.64,-0.190554 z m 45.492282,-0.173222 c 0.292755,-0.220432 0.778755,-0.549123 1.08,-0.730429 0.814019,-0.489917 0.695408,-2.046909 -0.212282,-2.786576 -0.418,-0.340624 -0.544,-0.512918 -0.28,-0.382874 0.977872,0.481687 1.6,1.217709 1.6,1.892909 0,0.751808 -1.052403,1.864563 -2.08,2.199287 -0.571862,0.186275 -0.583331,0.165801 -0.107718,-0.192317 z M 6.98,52.901407 c 0.231,-0.09244 0.507,-0.08107 0.6133334,0.02525 0.1063332,0.106332 -0.082667,0.181964 -0.42,0.16807 C 6.8005517,53.079365 6.7247254,53.003544 6.98,52.901394 Z m 37.12,0 c 0.230998,-0.09244 0.506998,-0.08107 0.613334,0.02525 0.106333,0.106332 -0.08267,0.181964 -0.42,0.16807 C 43.92055,53.079365 43.844726,53.003544 44.1,52.901394 Z M 14.96,51.628072 c 0.22,-0.08877 0.58,-0.08877 0.8,0 0.22,0.08877 0.04,0.161405 -0.4,0.161405 -0.44,0 -0.62,-0.07263 -0.4,-0.161405 z m 20.8,0 c 0.22,-0.08877 0.58,-0.08877 0.8,0 0.22,0.08877 0.04,0.161405 -0.4,0.161405 -0.44,0 -0.62,-0.07263 -0.4,-0.161405 z M 18.82,51.301406 c 0.231,-0.09244 0.507,-0.08107 0.613333,0.02525 0.106334,0.106333 -0.08267,0.181965 -0.42,0.168071 -0.372781,-0.01536 -0.448608,-0.09118 -0.193333,-0.193331 z m 13.44,0 c 0.230998,-0.09244 0.506998,-0.08107 0.613334,0.02525 0.106333,0.106333 -0.08267,0.181965 -0.42,0.168071 C 32.08055,51.479365 32.004726,51.403544 32.26,51.301394 Z"
         style="fill:#fcfcfc;stroke-width:0.32" />
      <path
         id="path132"
         d="m 19.44,61.534168 c 0.396,-0.07628 1.044,-0.07628 1.44,0 0.396,0.07627 0.072,0.138679 -0.72,0.138679 -0.792,0 -1.116,-0.06241 -0.72,-0.138679 z m 11.2,0 c 0.396,-0.07628 1.044,-0.07628 1.44,0 0.396,0.07627 0.072,0.138679 -0.72,0.138679 -0.792,0 -1.116,-0.06241 -0.72,-0.138679 z M 15.28,61.228072 c 0.22,-0.08877 0.58,-0.08877 0.8,0 0.22,0.08877 0.04,0.161405 -0.4,0.161405 -0.44,0 -0.62,-0.07263 -0.4,-0.161405 z m 20.16,0 c 0.22,-0.08877 0.58,-0.08877 0.8,0 0.22,0.08877 0.04,0.161405 -0.4,0.161405 -0.44,0 -0.62,-0.07263 -0.4,-0.161405 z M 13.06,60.901407 c 0.231,-0.09244 0.507,-0.08107 0.613333,0.02525 0.106334,0.106333 -0.08267,0.181965 -0.42,0.16807 -0.372781,-0.01536 -0.448608,-0.09118 -0.193333,-0.193331 z m 24.96,0 c 0.230998,-0.09244 0.506998,-0.08107 0.613334,0.02525 0.106333,0.106333 -0.08267,0.181965 -0.42,0.16807 C 37.84055,61.079365 37.764726,61.003544 38.02,60.901394 Z m -27.2,-0.32 c 0.231,-0.09244 0.507,-0.08107 0.613333,0.02525 0.106334,0.106333 -0.08267,0.181965 -0.42,0.16807 -0.372781,-0.01536 -0.448608,-0.09118 -0.193333,-0.193331 z m 29.44,0 c 0.230998,-0.09244 0.507002,-0.08107 0.613334,0.02525 0.106333,0.106333 -0.08267,0.181965 -0.42,0.16807 C 40.08055,60.759365 40.004726,60.683544 40.26,60.581394 Z m -31.04,-0.32 c 0.231,-0.09244 0.507,-0.08107 0.6133334,0.02525 0.1063332,0.106333 -0.082667,0.181965 -0.42,0.16807 C 9.0405517,60.439365 8.9647254,60.363544 9.22,60.261394 Z m 32.64,0 c 0.230998,-0.09244 0.506998,-0.08107 0.613334,0.02525 0.106333,0.106333 -0.08267,0.181965 -0.42,0.16807 C 41.68055,60.439365 41.604726,60.363544 41.86,60.261394 Z m -34.24,-0.32 c 0.231,-0.09244 0.507,-0.08107 0.6133334,0.02525 0.1063332,0.106333 -0.082667,0.181965 -0.42,0.16807 C 7.4405517,60.119365 7.3647254,60.043544 7.62,59.941394 Z m 35.84,0 c 0.230998,-0.09244 0.506998,-0.08107 0.613334,0.02525 0.106333,0.106333 -0.08267,0.181965 -0.42,0.16807 C 43.28055,60.119365 43.204726,60.043544 43.46,59.941394 Z M 4.8,59.200002 C 4.536,59.029391 4.464,58.889803 4.64,58.889803 c 0.176,0 0.536,0.139588 0.8,0.310199 0.264,0.170611 0.336,0.310198 0.16,0.310198 -0.176,0 -0.536,-0.139587 -0.8,-0.310198 z m 41.28,0 c 0.264,-0.170611 0.624,-0.310199 0.8,-0.310199 0.176,0 0.104,0.139588 -0.16,0.310199 -0.264,0.170611 -0.624,0.310198 -0.8,0.310198 -0.176,0 -0.104,-0.139587 0.16,-0.310198 z M 2.7270899,58.224885 C 1.0432183,57.149906 1.0228797,55.76037 2.6763761,54.760107 3.2283693,54.426184 4.04,54.054437 4.48,53.933999 4.92,53.81356 4.524,54.160056 3.6,54.703986 c -2.1254836,1.251203 -2.2568245,2.160982 -0.485717,3.36448 1.3755858,0.934736 1.0426591,1.069232 -0.3871931,0.156419 z M 48.405718,58.068466 c 1.771108,-1.203498 1.639767,-2.113277 -0.485718,-3.36448 -0.924,-0.54393 -1.32,-0.890426 -0.88,-0.769987 3.156205,0.86392 3.951382,2.922825 1.66568,4.312844 -1.49575,0.909617 -1.711917,0.781069 -0.299962,-0.178377 z M 7.94,52.901407 c 0.231,-0.09244 0.507,-0.08107 0.6133334,0.02525 0.1063332,0.106332 -0.082667,0.181964 -0.42,0.16807 C 7.7605517,53.079365 7.6847254,53.003544 7.94,52.901394 Z m 35.2,0 c 0.230998,-0.09244 0.506998,-0.08107 0.613334,0.02525 0.106333,0.106332 -0.08267,0.181964 -0.42,0.16807 C 42.96055,53.079365 42.884726,53.003544 43.14,52.901394 Z M 9.22,52.581406 c 0.231,-0.09244 0.507,-0.08107 0.6133334,0.02525 0.1063332,0.106333 -0.082667,0.181965 -0.42,0.168071 C 9.0405517,52.759365 8.9647254,52.683544 9.22,52.581394 Z m 32.64,0 c 0.230998,-0.09244 0.506998,-0.08107 0.613334,0.02525 0.106333,0.106333 -0.08267,0.181965 -0.42,0.168071 C 41.68055,52.759365 41.604726,52.683544 41.86,52.581394 Z M 10.8,52.268072 c 0.22,-0.08877 0.58,-0.08877 0.8,0 0.22,0.08877 0.04,0.161405 -0.4,0.161405 -0.44,0 -0.62,-0.07263 -0.4,-0.161405 z m 29.12,0 c 0.22,-0.08877 0.58,-0.08877 0.8,0 0.22,0.08877 0.04,0.161405 -0.4,0.161405 -0.44,0 -0.62,-0.07263 -0.4,-0.161405 z m -26.88,-0.32 c 0.22,-0.08877 0.58,-0.08877 0.8,0 0.22,0.08877 0.04,0.161405 -0.4,0.161405 -0.44,0 -0.62,-0.07263 -0.4,-0.161405 z m 24.64,0 c 0.22,-0.08877 0.58,-0.08877 0.8,0 0.22,0.08877 0.04,0.161405 -0.4,0.161405 -0.44,0 -0.62,-0.07263 -0.4,-0.161405 z m -21.44,-0.32 c 0.22,-0.08877 0.58,-0.08877 0.8,0 0.22,0.08877 0.04,0.161405 -0.4,0.161405 -0.44,0 -0.62,-0.07263 -0.4,-0.161405 z m 18.24,0 c 0.22,-0.08877 0.58,-0.08877 0.8,0 0.22,0.08877 0.04,0.161405 -0.4,0.161405 -0.44,0 -0.62,-0.07263 -0.4,-0.161405 z M 20.405731,51.288088 c 0.575152,-0.07122 1.439152,-0.06975 1.92,0.0033 0.480848,0.07302 0.01027,0.131286 -1.045731,0.129491 -1.056,-0.0019 -1.449421,-0.06154 -0.874269,-0.132755 z m 8.96,0 c 0.575152,-0.07122 1.439152,-0.06975 1.92,0.0033 0.480848,0.07302 0.01027,0.131286 -1.045731,0.129491 -1.056,-0.0019 -1.449421,-0.06154 -0.874269,-0.132755 z"
         style="fill:#fafafa;stroke-width:0.32" />
      <path
         id="path130"
         d="m 23.426,61.523026 c 1.1803,-0.0614 3.1963,-0.0618 4.48,-9.6e-4 1.2837,0.0609 0.318,0.111126 -2.146,0.111626 -2.464,6.4e-4 -3.5143,-0.04933 -2.334,-0.110717 z m -6.542269,-0.309347 c 0.398052,-0.07654 0.974052,-0.07363 1.28,0.0065 0.305948,0.08009 -0.01973,0.14272 -0.723731,0.139168 -0.704,-0.0036 -0.954321,-0.06909 -0.556269,-0.145626 z m 16.64,0 c 0.398051,-0.07654 0.974051,-0.07363 1.28,0.0065 0.305949,0.08009 -0.01974,0.14272 -0.723731,0.139168 -0.704,-0.0036 -0.95432,-0.06909 -0.556269,-0.145626 z M 14,60.908072 c 0.22,-0.08877 0.58,-0.08877 0.8,0 0.22,0.08877 0.04,0.161405 -0.4,0.161405 -0.44,0 -0.62,-0.07263 -0.4,-0.161405 z m 22.72,0 c 0.22,-0.08877 0.58,-0.08877 0.8,0 0.22,0.08877 0.04,0.161405 -0.4,0.161405 -0.44,0 -0.62,-0.07263 -0.4,-0.161405 z M 11.78,60.581407 c 0.231,-0.09244 0.507,-0.08107 0.613333,0.02525 0.106334,0.106333 -0.08267,0.181965 -0.42,0.16807 -0.372781,-0.01536 -0.448608,-0.09118 -0.193333,-0.193331 z m 27.52,0 c 0.230998,-0.09244 0.506998,-0.08107 0.613334,0.02525 0.106333,0.106333 -0.08267,0.181965 -0.42,0.16807 C 39.12055,60.759365 39.044726,60.683544 39.3,60.581394 Z M 5.3084922,59.167666 C 1.4244489,57.592216 0.92651229,56.228562 3.68,54.707864 4.56,54.221858 5.64,53.735499 6.08,53.627067 6.52,53.518639 6.1440813,53.775179 5.2446253,54.197157 1.4997457,55.954063 1.972467,57.633266 6.7025034,59.375845 7.3281267,59.606328 7.624,59.797199 7.36,59.800005 7.096,59.802885 6.1728214,59.518255 5.3084922,59.167666 Z m 39.5090058,0.208179 c 4.730035,-1.742579 5.202755,-3.421782 1.457878,-5.178688 C 45.37592,53.775179 45,53.518639 45.44,53.627067 c 0.44,0.108432 1.52,0.594791 2.4,1.080797 2.778291,1.534397 2.2496,2.911703 -1.71799,4.475578 -0.916138,0.361107 -1.840372,0.646413 -2.053856,0.634013 -0.213485,-0.01242 0.123718,-0.211127 0.749344,-0.44161 z M 7.3,53.221407 c 0.231,-0.09244 0.507,-0.08107 0.6133334,0.02525 0.1063332,0.106332 -0.082667,0.181964 -0.42,0.16807 C 7.1205517,53.399365 7.0447254,53.323544 7.3,53.221394 Z m 36.48,0 c 0.230998,-0.09244 0.506998,-0.08107 0.613334,0.02525 0.106333,0.106332 -0.08267,0.181964 -0.42,0.16807 C 43.60055,53.399365 43.524726,53.323544 43.78,53.221394 Z m -33.6,-0.640001 c 0.231,-0.09244 0.507,-0.08107 0.613333,0.02525 0.106334,0.106333 -0.08267,0.181965 -0.42,0.168071 C 10.000552,52.759365 9.9247254,52.683544 10.18,52.581394 Z m 30.72,0 c 0.230998,-0.09244 0.506998,-0.08107 0.613334,0.02525 0.106333,0.106333 -0.08267,0.181965 -0.42,0.168071 C 40.72055,52.759365 40.644726,52.683544 40.9,52.581394 Z M 12.08,52.268072 c 0.22,-0.08877 0.58,-0.08877 0.8,0 0.22,0.08877 0.04,0.161405 -0.4,0.161405 -0.44,0 -0.62,-0.07263 -0.4,-0.161405 z m 26.56,0 c 0.22,-0.08877 0.58,-0.08877 0.8,0 0.22,0.08877 0.04,0.161405 -0.4,0.161405 -0.44,0 -0.62,-0.07263 -0.4,-0.161405 z m -24.32,-0.32 c 0.22,-0.08877 0.58,-0.08877 0.8,0 0.22,0.08877 0.04,0.161405 -0.4,0.161405 -0.44,0 -0.62,-0.07263 -0.4,-0.161405 z m 22.08,0 c 0.22,-0.08877 0.58,-0.08877 0.8,0 0.22,0.08877 0.04,0.161405 -0.4,0.161405 -0.44,0 -0.62,-0.07263 -0.4,-0.161405 z M 17.68609,51.618245 c 0.31135,-0.08113 0.74335,-0.0758 0.96,0.01187 0.21665,0.08766 -0.03809,0.154038 -0.56609,0.147517 -0.528,-0.0065 -0.70526,-0.07824 -0.39391,-0.159373 z m 15.36,0 c 0.31135,-0.08113 0.74335,-0.0758 0.96,0.01187 0.216649,0.08766 -0.03809,0.154038 -0.56609,0.147517 -0.528,-0.0065 -0.705261,-0.07824 -0.39391,-0.159373 z m -8.636435,-0.33385 c 0.841311,-0.06614 2.137311,-0.06534 2.88,0.0019 0.74269,0.06711 0.05435,0.121223 -1.529655,0.120247 -1.584,-9.6e-4 -2.191655,-0.05589 -1.350345,-0.12202 z"
         style="fill:#f8f8f8;stroke-width:0.32" />
      <path
         id="path128"
         d="m 19.123731,61.213679 c 0.398052,-0.07654 0.974052,-0.07363 1.28,0.0065 0.305948,0.08009 -0.01973,0.14272 -0.723731,0.139168 -0.704,-0.0036 -0.954321,-0.06909 -0.556269,-0.145626 z m 12.16,0 c 0.398052,-0.07654 0.974051,-0.07363 1.28,0.0065 0.305949,0.08009 -0.01974,0.14272 -0.723731,0.139168 -0.704,-0.0036 -0.954321,-0.06909 -0.556269,-0.145626 z M 15.28,60.908072 c 0.22,-0.08877 0.58,-0.08877 0.8,0 0.22,0.08877 0.04,0.161405 -0.4,0.161405 -0.44,0 -0.62,-0.07263 -0.4,-0.161405 z m 20.16,0 c 0.22,-0.08877 0.58,-0.08877 0.8,0 0.22,0.08877 0.04,0.161405 -0.4,0.161405 -0.44,0 -0.62,-0.07263 -0.4,-0.161405 z m -22.72,-0.32 c 0.22,-0.08877 0.58,-0.08877 0.8,0 0.22,0.08877 0.04,0.161405 -0.4,0.161405 -0.44,0 -0.62,-0.07263 -0.4,-0.161405 z m 25.28,0 c 0.22,-0.08877 0.58,-0.08877 0.8,0 0.22,0.08877 0.04,0.161405 -0.4,0.161405 -0.44,0 -0.62,-0.07263 -0.4,-0.161405 z M 10.82,60.261407 c 0.231,-0.09244 0.507,-0.08107 0.613333,0.02525 0.106334,0.106333 -0.08267,0.181965 -0.42,0.16807 -0.372781,-0.01536 -0.448608,-0.09118 -0.193333,-0.193331 z m 29.44,0 c 0.230998,-0.09244 0.507002,-0.08107 0.613334,0.02525 0.106333,0.106333 -0.08267,0.181965 -0.42,0.16807 C 40.08055,60.439365 40.004726,60.363544 40.26,60.261394 Z m -31.04,-0.32 c 0.231,-0.09244 0.507,-0.08107 0.6133334,0.02525 0.1063332,0.106333 -0.082667,0.181965 -0.42,0.16807 C 9.0405517,60.119365 8.9647254,60.043544 9.22,59.941394 Z m 32.64,0 c 0.230998,-0.09244 0.506998,-0.08107 0.613334,0.02525 0.106333,0.106333 -0.08267,0.181965 -0.42,0.16807 C 41.68055,60.119365 41.604726,60.043544 41.86,59.941394 Z m -33.92,-0.32 c 0.231,-0.09244 0.507,-0.08107 0.6133334,0.02525 0.1063332,0.106333 -0.082667,0.181965 -0.42,0.16807 C 7.7605517,59.799365 7.6847254,59.723544 7.94,59.621394 Z m 35.2,0 c 0.230998,-0.09244 0.506998,-0.08107 0.613334,0.02525 0.106333,0.106333 -0.08267,0.181965 -0.42,0.16807 C 42.96055,59.799365 42.884726,59.723544 43.14,59.621394 Z M 4.4411926,58.399903 C 3.6278486,57.976239 2.887766,57.344261 2.7965645,56.995506 2.5866584,56.192821 3.2913597,55.174671 4.4835341,54.558175 5.8464083,53.853403 6.0063754,53.976677 4.7973478,54.800002 2.6851163,56.238392 2.8501352,57.209285 5.439665,58.579087 6.0558493,58.905032 6.416,59.171375 6.24,59.170959 6.064,59.170639 5.2545366,58.823567 4.4411926,58.399903 Z m 41.6391434,0.179184 c 2.58953,-1.369802 2.754547,-2.340695 0.642317,-3.779085 -1.209027,-0.823325 -1.049063,-0.946599 0.313814,-0.241827 1.192563,0.616697 1.896858,1.634713 1.686762,2.438115 -0.09131,0.349187 -0.862608,0.987872 -1.713991,1.419299 -1.78863,0.906368 -2.604841,1.050029 -0.928902,0.163498 z M 6.98,53.541407 c 0.231,-0.09244 0.507,-0.08107 0.6133334,0.02525 0.1063332,0.106332 -0.082667,0.181964 -0.42,0.16807 C 6.8005517,53.719365 6.7247254,53.643544 6.98,53.541394 Z m 37.12,0 c 0.230998,-0.09244 0.506998,-0.08107 0.613334,0.02525 0.106333,0.106332 -0.08267,0.181964 -0.42,0.16807 C 43.92055,53.719365 43.844726,53.643544 44.1,53.541394 Z m -35.84,-0.32 c 0.231,-0.09244 0.507,-0.08107 0.6133334,0.02525 0.1063332,0.106332 -0.082667,0.181964 -0.42,0.16807 C 8.0805517,53.399365 8.0047254,53.323544 8.26,53.221394 Z m 34.56,0 c 0.230998,-0.09244 0.506998,-0.08107 0.613334,0.02525 0.106333,0.106332 -0.08267,0.181964 -0.42,0.16807 C 42.64055,53.399365 42.564726,53.323544 42.82,53.221394 Z m -33.28,-0.32 c 0.231,-0.09244 0.507,-0.08107 0.613333,0.02525 0.106334,0.106332 -0.08267,0.181964 -0.4199996,0.16807 C 9.3605517,53.079365 9.2847254,53.003544 9.54,52.901394 Z m 32,0 c 0.230998,-0.09244 0.506998,-0.08107 0.613334,0.02525 0.106333,0.106332 -0.08267,0.181964 -0.42,0.16807 C 41.36055,53.079365 41.284726,53.003544 41.54,52.901394 Z m -30.4,-0.320001 c 0.231,-0.09244 0.507,-0.08107 0.613333,0.02525 0.106334,0.106333 -0.08267,0.181965 -0.42,0.168071 -0.372781,-0.01536 -0.448608,-0.09118 -0.193333,-0.193331 z m 28.8,0 c 0.230998,-0.09244 0.506998,-0.08107 0.613334,0.02525 0.106333,0.106333 -0.08267,0.181965 -0.42,0.168071 C 39.76055,52.759365 39.684726,52.683544 39.94,52.581394 Z m -26.56,-0.32 c 0.231,-0.09244 0.507,-0.08107 0.613333,0.02525 0.106334,0.106333 -0.08267,0.181965 -0.42,0.168071 -0.372781,-0.01536 -0.448608,-0.09118 -0.193333,-0.193331 z m 24.32,0 c 0.230998,-0.09244 0.506998,-0.08107 0.613334,0.02525 0.106333,0.106333 -0.08267,0.181965 -0.42,0.168071 C 37.52055,52.439365 37.444726,52.363544 37.7,52.261394 Z M 15.76609,51.938245 c 0.31135,-0.08113 0.74335,-0.0758 0.96,0.01187 0.21665,0.08766 -0.03809,0.154038 -0.56609,0.147517 -0.528,-0.0065 -0.70526,-0.07824 -0.39391,-0.159373 z m 19.2,0 c 0.31135,-0.08113 0.74335,-0.0758 0.96,0.01187 0.216649,0.08766 -0.03809,0.154038 -0.56609,0.147517 -0.528,-0.0065 -0.705261,-0.07824 -0.39391,-0.159373 z M 19.6044,51.610376 c 0.48642,-0.07355 1.20642,-0.07159 1.6,0.0044 0.39358,0.07596 -0.0044,0.136134 -0.8844,0.133734 -0.88,-0.0026 -1.20202,-0.06455 -0.7156,-0.138102 z m 10.88,0 c 0.48642,-0.07355 1.20642,-0.07159 1.6,0.0044 0.393581,0.07596 -0.0044,0.136134 -0.8844,0.133734 -0.88,-0.0026 -1.20202,-0.06455 -0.7156,-0.138102 z"
         style="fill:#f6f6f6;stroke-width:0.32" />
      <path
         id="path126"
         d="m 21.685731,61.208088 c 0.575152,-0.07122 1.439152,-0.06975 1.92,0.0033 0.480848,0.07302 0.01027,0.131287 -1.045731,0.129492 -1.056,-0.0019 -1.449421,-0.06154 -0.874269,-0.132756 z m 6.4,0 c 0.575152,-0.07122 1.439152,-0.06975 1.92,0.0033 0.480848,0.07302 0.01027,0.131287 -1.045731,0.129492 -1.056,-0.0019 -1.449421,-0.06154 -0.874269,-0.132756 z M 16.56,60.908072 c 0.22,-0.08877 0.58,-0.08877 0.8,0 0.22,0.08877 0.04,0.161405 -0.4,0.161405 -0.44,0 -0.62,-0.07263 -0.4,-0.161405 z m 17.6,0 c 0.22,-0.08877 0.58,-0.08877 0.8,0 0.22,0.08877 0.04,0.161405 -0.4,0.161405 -0.44,0 -0.62,-0.07263 -0.4,-0.161405 z M 14.02,60.581407 c 0.231,-0.09244 0.507,-0.08107 0.613333,0.02525 0.106334,0.106333 -0.08267,0.181965 -0.42,0.16807 -0.372781,-0.01536 -0.448608,-0.09118 -0.193333,-0.193331 z m 23.04,0 c 0.230998,-0.09244 0.506998,-0.08107 0.613334,0.02525 0.106333,0.106333 -0.08267,0.181965 -0.42,0.16807 C 36.88055,60.759365 36.804726,60.683544 37.06,60.581394 Z m -25.28,-0.32 c 0.231,-0.09244 0.507,-0.08107 0.613333,0.02525 0.106334,0.106333 -0.08267,0.181965 -0.42,0.16807 -0.372781,-0.01536 -0.448608,-0.09118 -0.193333,-0.193331 z m 27.52,0 c 0.230998,-0.09244 0.506998,-0.08107 0.613334,0.02525 0.106333,0.106333 -0.08267,0.181965 -0.42,0.16807 C 39.12055,60.439365 39.044726,60.363544 39.3,60.261394 Z M 3.8957805,57.499378 C 3.5131011,57.092034 3.2,56.613135 3.2,56.435157 3.2,55.983451 4.4446362,54.893573 5.6641088,54.277432 7.3663098,53.417397 7.3152531,53.712101 5.6,54.647477 c -1.7797261,0.970534 -2.1910003,1.945882 -1.2561184,2.978915 0.7936403,0.87696 0.3867315,0.761623 -0.4481011,-0.127014 z m 43.2522225,0.207014 c 0.952983,-1.132966 0.574394,-2.076019 -1.228003,-3.058915 -1.715254,-0.935376 -1.76631,-1.23008 -0.06411,-0.370045 1.264954,0.63912 2.464109,1.710995 2.464109,2.20257 0,0.20264 -0.39497,0.717539 -0.877712,1.144221 -0.718947,0.635452 -0.772176,0.650316 -0.294285,0.08217 z M 12.1,52.581406 c 0.231,-0.09244 0.507,-0.08107 0.613333,0.02525 0.106334,0.106333 -0.08267,0.181965 -0.42,0.168071 C 11.920552,52.759365 11.844725,52.683544 12.1,52.581394 Z m 26.88,0 c 0.230998,-0.09244 0.506998,-0.08107 0.613334,0.02525 0.106333,0.106333 -0.08267,0.181965 -0.42,0.168071 C 38.80055,52.759365 38.724726,52.683544 38.98,52.581394 Z m -24.64,-0.32 c 0.231,-0.09244 0.507,-0.08107 0.613333,0.02525 0.106334,0.106333 -0.08267,0.181965 -0.42,0.168071 -0.372781,-0.01536 -0.448608,-0.09118 -0.193333,-0.193331 z m 22.4,0 c 0.230998,-0.09244 0.506998,-0.08107 0.613334,0.02525 0.106333,0.106333 -0.08267,0.181965 -0.42,0.168071 C 36.56055,52.439365 36.484726,52.363544 36.74,52.261394 Z M 17.36609,51.938245 c 0.31135,-0.08113 0.74335,-0.0758 0.96,0.01187 0.21665,0.08766 -0.03809,0.154038 -0.56609,0.147517 -0.528,-0.0065 -0.70526,-0.07824 -0.39391,-0.159373 z m 16,0 c 0.31135,-0.08113 0.74335,-0.0758 0.96,0.01187 0.216649,0.08766 -0.03809,0.154038 -0.56609,0.147517 -0.528,-0.0065 -0.705261,-0.07824 -0.39391,-0.159373 z m -9.592782,-0.335843 c 1.19532,-0.06174 3.06732,-0.06128 4.16,9.6e-4 1.092681,0.0623 0.114692,0.112809 -2.173308,0.112249 -2.288,-6.4e-4 -3.182011,-0.05153 -1.986692,-0.113267 z"
         style="fill:#f4f4f4;stroke-width:0.32" />
      <path
         id="path124"
         d="m 25.0444,61.210376 c 0.48642,-0.07355 1.20642,-0.07159 1.6,0.0044 0.39358,0.07596 -0.0044,0.136135 -0.8844,0.133735 -0.88,-0.0026 -1.20202,-0.06455 -0.7156,-0.138103 z m -7.03831,-0.312131 c 0.31135,-0.08113 0.74335,-0.0758 0.96,0.01187 0.21665,0.08766 -0.03809,0.154039 -0.56609,0.147517 -0.528,-0.0065 -0.70526,-0.07824 -0.39391,-0.159373 z m 14.72,0 c 0.31135,-0.08113 0.74335,-0.0758 0.96,0.01187 0.216649,0.08766 -0.03809,0.154039 -0.56609,0.147517 -0.528,-0.0065 -0.705261,-0.07824 -0.39391,-0.159373 z M 14.96,60.588072 c 0.22,-0.08877 0.58,-0.08877 0.8,0 0.22,0.08877 0.04,0.161405 -0.4,0.161405 -0.44,0 -0.62,-0.07263 -0.4,-0.161405 z m 20.8,0 c 0.22,-0.08877 0.58,-0.08877 0.8,0 0.22,0.08877 0.04,0.161405 -0.4,0.161405 -0.44,0 -0.62,-0.07263 -0.4,-0.161405 z M 12.74,60.261407 c 0.231,-0.09244 0.507,-0.08107 0.613333,0.02525 0.106334,0.106333 -0.08267,0.181965 -0.42,0.16807 -0.372781,-0.01536 -0.448608,-0.09118 -0.193333,-0.193331 z m 25.6,0 c 0.230998,-0.09244 0.506998,-0.08107 0.613334,0.02525 0.106333,0.106333 -0.08267,0.181965 -0.42,0.16807 C 38.16055,60.439365 38.084726,60.363544 38.34,60.261394 Z m -27.52,-0.32 c 0.231,-0.09244 0.507,-0.08107 0.613333,0.02525 0.106334,0.106333 -0.08267,0.181965 -0.42,0.16807 -0.372781,-0.01536 -0.448608,-0.09118 -0.193333,-0.193331 z m 29.44,0 c 0.230998,-0.09244 0.507002,-0.08107 0.613334,0.02525 0.106333,0.106333 -0.08267,0.181965 -0.42,0.16807 C 40.08055,60.119365 40.004726,60.043544 40.26,59.941394 Z m -32,-0.64 c 0.231,-0.09244 0.507,-0.08107 0.6133334,0.02525 0.1063332,0.106333 -0.082667,0.181965 -0.42,0.16807 C 8.0805517,59.479365 8.0047254,59.403544 8.26,59.301394 Z m 34.56,0 c 0.230998,-0.09244 0.506998,-0.08107 0.613334,0.02525 0.106333,0.106333 -0.08267,0.181965 -0.42,0.16807 C 42.64055,59.479365 42.564726,59.403544 42.82,59.301394 Z M 5.0873226,58.147256 C 3.722416,57.227445 3.5892298,55.869151 4.7864704,55.079032 l 0.7864701,-0.51903 -0.7567568,1.026621 C 3.9570925,56.752069 4.1412125,57.203112 5.92,58.290664 c 0.528,0.322819 0.801295,0.587485 0.6073226,0.588141 -0.1939725,6.4e-4 -0.8419725,-0.328538 -1.44,-0.731549 z M 45.6,58.290664 c 1.778787,-1.087552 1.962909,-1.538595 1.103818,-2.704041 l -0.756759,-1.026621 0.786471,0.51903 c 1.197241,0.790119 1.064054,2.148413 -0.300852,3.068224 -0.598028,0.403011 -1.246028,0.732208 -1.44,0.731549 C 44.798704,58.878165 45.072,58.613483 45.6,58.290664 Z M 8.26,53.541407 c 0.231,-0.09244 0.507,-0.08107 0.6133334,0.02525 0.1063332,0.106332 -0.082667,0.181964 -0.42,0.16807 C 8.0805517,53.719365 8.0047254,53.643544 8.26,53.541394 Z m 34.56,0 c 0.230998,-0.09244 0.506998,-0.08107 0.613334,0.02525 0.106333,0.106332 -0.08267,0.181964 -0.42,0.16807 C 42.64055,53.719365 42.564726,53.643544 42.82,53.541394 Z m -33.28,-0.32 c 0.231,-0.09244 0.507,-0.08107 0.613333,0.02525 0.106334,0.106332 -0.08267,0.181964 -0.4199996,0.16807 C 9.3605517,53.399365 9.2847254,53.323544 9.54,53.221394 Z m 32,0 c 0.230998,-0.09244 0.506998,-0.08107 0.613334,0.02525 0.106333,0.106332 -0.08267,0.181964 -0.42,0.16807 C 41.36055,53.399365 41.284726,53.323544 41.54,53.221394 Z m -30.4,-0.32 c 0.231,-0.09244 0.507,-0.08107 0.613333,0.02525 0.106334,0.106332 -0.08267,0.181964 -0.42,0.16807 -0.372781,-0.01536 -0.448608,-0.09118 -0.193333,-0.193331 z m 28.8,0 c 0.230998,-0.09244 0.506998,-0.08107 0.613334,0.02525 0.106333,0.106332 -0.08267,0.181964 -0.42,0.16807 C 39.76055,53.079365 39.684726,53.003544 39.94,52.901394 Z M 13.06,52.581406 c 0.231,-0.09244 0.507,-0.08107 0.613333,0.02525 0.106334,0.106333 -0.08267,0.181965 -0.42,0.168071 -0.372781,-0.01536 -0.448608,-0.09118 -0.193333,-0.193331 z m 24.96,0 c 0.230998,-0.09244 0.506998,-0.08107 0.613334,0.02525 0.106333,0.106333 -0.08267,0.181965 -0.42,0.168071 C 37.84055,52.759365 37.764726,52.683544 38.02,52.581394 Z M 15.28,52.268072 c 0.22,-0.08877 0.58,-0.08877 0.8,0 0.22,0.08877 0.04,0.161405 -0.4,0.161405 -0.44,0 -0.62,-0.07263 -0.4,-0.161405 z m 20.16,0 c 0.22,-0.08877 0.58,-0.08877 0.8,0 0.22,0.08877 0.04,0.161405 -0.4,0.161405 -0.44,0 -0.62,-0.07263 -0.4,-0.161405 z M 18.96,51.939416 c 0.308,-0.08049 0.812,-0.08049 1.12,0 0.308,0.08049 0.056,0.146346 -0.56,0.146346 -0.616,0 -0.868,-0.06586 -0.56,-0.146346 z m 12.48,0 c 0.308,-0.08049 0.812,-0.08049 1.12,0 0.308,0.08049 0.056,0.146346 -0.56,0.146346 -0.616,0 -0.868,-0.06586 -0.56,-0.146346 z"
         style="fill:#f2f2f2;stroke-width:0.32" />
      <path
         id="path122"
         d="m 19.6,60.899416 c 0.308,-0.08049 0.812,-0.08049 1.12,0 0.308,0.08049 0.056,0.146346 -0.56,0.146346 -0.616,0 -0.868,-0.06586 -0.56,-0.146346 z m 11.2,0 c 0.308,-0.08049 0.812,-0.08049 1.12,0 0.308,0.08049 0.056,0.146346 -0.56,0.146346 -0.616,0 -0.868,-0.06586 -0.56,-0.146346 z M 16.24,60.588072 c 0.22,-0.08877 0.58,-0.08877 0.8,0 0.22,0.08877 0.04,0.161405 -0.4,0.161405 -0.44,0 -0.62,-0.07263 -0.4,-0.161405 z m 18.24,0 c 0.22,-0.08877 0.58,-0.08877 0.8,0 0.22,0.08877 0.04,0.161405 -0.4,0.161405 -0.44,0 -0.62,-0.07263 -0.4,-0.161405 z M 5.92,58.290664 C 4.4108986,57.367999 4.0523203,56.799128 4.478217,56.003333 4.843687,55.320447 6.6065446,54.078917 7.2,54.086463 c 0.176,0.0022 -0.256,0.330281 -0.96,0.728985 -1.0381414,0.587943 -1.28,0.902461 -1.28,1.664554 0,0.762093 0.2418586,1.076611 1.28,1.664553 0.704,0.398704 1.136,0.726749 0.96,0.728986 -0.176,0.0022 -0.752,-0.260058 -1.28,-0.582877 z m 39.36,-0.146109 c 1.038141,-0.587942 1.28,-0.90246 1.28,-1.664553 0,-0.762093 -0.241859,-1.076611 -1.28,-1.664554 -0.704,-0.398704 -1.136,-0.726749 -0.96,-0.728985 0.595834,-0.0076 2.356982,1.235232 2.725082,1.923036 0.421904,0.78833 -0.1704,1.648599 -1.668436,2.423264 -1.409004,0.728625 -1.486105,0.498701 -0.09665,-0.288208 z M 16.56,52.268072 c 0.22,-0.08877 0.58,-0.08877 0.8,0 0.22,0.08877 0.04,0.161405 -0.4,0.161405 -0.44,0 -0.62,-0.07263 -0.4,-0.161405 z m 17.6,0 c 0.22,-0.08877 0.58,-0.08877 0.8,0 0.22,0.08877 0.04,0.161405 -0.4,0.161405 -0.44,0 -0.62,-0.07263 -0.4,-0.161405 z M 20.88,51.939416 c 0.308,-0.08049 0.812,-0.08049 1.12,0 0.308,0.08049 0.056,0.146346 -0.56,0.146346 -0.616,0 -0.868,-0.06586 -0.56,-0.146346 z m 8.64,0 c 0.308,-0.08049 0.812,-0.08049 1.12,0 0.308,0.08049 0.056,0.146346 -0.56,0.146346 -0.616,0 -0.868,-0.06586 -0.56,-0.146346 z"
         style="fill:#f0f0f0;stroke-width:0.32" />
      <path
         id="path120"
         d="m 22,60.888514 c 0.572,-0.07098 1.508,-0.07098 2.08,0 0.572,0.07099 0.104,0.129066 -1.04,0.129066 -1.144,0 -1.612,-0.05808 -1.04,-0.129066 z m 5.44,0 c 0.572,-0.07098 1.508,-0.07098 2.08,0 0.572,0.07099 0.104,0.129066 -1.04,0.129066 -1.144,0 -1.612,-0.05808 -1.04,-0.129066 z m -9.9,-0.307107 c 0.231,-0.09244 0.507,-0.08107 0.613333,0.02525 0.106334,0.106333 -0.08267,0.181965 -0.42,0.16807 -0.372781,-0.01536 -0.448608,-0.09118 -0.193333,-0.193331 z m 16,0 c 0.230998,-0.09244 0.506998,-0.08107 0.613334,0.02525 0.106333,0.106333 -0.08267,0.181965 -0.42,0.16807 C 33.36055,60.759365 33.284726,60.683544 33.54,60.581394 Z m -21.12,-0.64 c 0.231,-0.09244 0.507,-0.08107 0.613333,0.02525 0.106334,0.106333 -0.08267,0.181965 -0.42,0.16807 -0.372781,-0.01536 -0.448608,-0.09118 -0.193333,-0.193331 z m 26.24,0 c 0.230998,-0.09244 0.506998,-0.08107 0.613334,0.02525 0.106333,0.106333 -0.08267,0.181965 -0.42,0.16807 C 38.48055,60.119365 38.404726,60.043544 38.66,59.941394 Z m -27.84,-0.32 c 0.231,-0.09244 0.507,-0.08107 0.613333,0.02525 0.106334,0.106333 -0.08267,0.181965 -0.42,0.16807 -0.372781,-0.01536 -0.448608,-0.09118 -0.193333,-0.193331 z m 29.44,0 c 0.230998,-0.09244 0.507002,-0.08107 0.613334,0.02525 0.106333,0.106333 -0.08267,0.181965 -0.42,0.16807 C 40.08055,59.799365 40.004726,59.723544 40.26,59.621394 Z M 5.8194944,57.911039 C 4.9862502,57.403026 4.7805264,57.08533 4.8594944,56.428533 4.9158918,55.959458 5.3110893,55.372424 5.76,55.090907 l 0.8,-0.501689 -0.72,0.806016 c -0.9533011,1.06719 -0.9122893,1.366835 0.32,2.338025 1.2508381,0.985812 1.1075411,1.060628 -0.3405056,0.17778 z M 45.36,57.774187 c 1.232541,-1.019894 1.271997,-1.313222 0.32,-2.378953 l -0.72,-0.806016 0.8,0.504422 c 1.242195,0.783239 1.092746,2.149658 -0.32,2.925805 l -1.12,0.615318 z M 7.04,54.400002 c 0.264,-0.170611 0.624,-0.310199 0.8,-0.310199 0.176,0 0.104,0.139588 -0.16,0.310199 -0.264,0.170611 -0.624,0.310198 -0.8,0.310198 -0.176,0 -0.104,-0.139587 0.16,-0.310198 z m 36.8,0 c -0.264,-0.170611 -0.336,-0.310199 -0.16,-0.310199 0.176,0 0.536,0.139588 0.8,0.310199 0.264,0.170611 0.336,0.310198 0.16,0.310198 -0.176,0 -0.536,-0.139587 -0.8,-0.310198 z M 14.66,52.581406 c 0.231,-0.09244 0.507,-0.08107 0.613333,0.02525 0.106334,0.106333 -0.08267,0.181965 -0.42,0.168071 -0.372781,-0.01536 -0.448608,-0.09118 -0.193333,-0.193331 z m 21.76,0 c 0.230998,-0.09244 0.506998,-0.08107 0.613334,0.02525 0.106333,0.106333 -0.08267,0.181965 -0.42,0.168071 C 36.24055,52.759365 36.164726,52.683544 36.42,52.581394 Z m -18.56,-0.32 c 0.231,-0.09244 0.507,-0.08107 0.613333,0.02525 0.106334,0.106333 -0.08267,0.181965 -0.42,0.168071 -0.372781,-0.01536 -0.448608,-0.09118 -0.193333,-0.193331 z m 15.36,0 c 0.230998,-0.09244 0.506998,-0.08107 0.613334,0.02525 0.106333,0.106333 -0.08267,0.181965 -0.42,0.168071 C 33.04055,52.439365 32.964726,52.363544 33.22,52.261394 Z m -9.128316,-0.33823 c 1.018426,-0.0637 2.602426,-0.0631 3.52,0.0013 0.917574,0.06442 0.08432,0.116534 -1.851684,0.115811 -1.936,-6.4e-4 -2.686742,-0.05343 -1.668316,-0.117123 z"
         style="fill:#eeeeee;stroke-width:0.32" />
      <path
         id="path118"
         d="m 25.36609,60.898245 c 0.31135,-0.08113 0.74335,-0.0758 0.96,0.01187 0.21665,0.08766 -0.03809,0.154039 -0.56609,0.147517 -0.528,-0.0065 -0.70526,-0.07824 -0.39391,-0.159373 z m -6.72,-0.32 c 0.31135,-0.08113 0.74335,-0.0758 0.96,0.01187 0.21665,0.08766 -0.03809,0.154039 -0.56609,0.147517 -0.528,-0.0065 -0.70526,-0.07824 -0.39391,-0.159373 z m 13.44,0 c 0.31135,-0.08113 0.74335,-0.0758 0.96,0.01187 0.216649,0.08766 -0.03809,0.154039 -0.56609,0.147517 -0.528,-0.0065 -0.70526,-0.07824 -0.39391,-0.159373 z m -16.96,-0.32 c 0.31135,-0.08113 0.74335,-0.0758 0.96,0.01187 0.21665,0.08766 -0.03809,0.154039 -0.56609,0.147517 -0.528,-0.0065 -0.70526,-0.07824 -0.39391,-0.159373 z m 20.48,0 c 0.31135,-0.08113 0.74335,-0.0758 0.96,0.01187 0.216649,0.08766 -0.03809,0.154039 -0.56609,0.147517 -0.528,-0.0065 -0.705261,-0.07824 -0.39391,-0.159373 z M 6.16,57.733259 C 5.588,57.282456 5.12,56.733154 5.12,56.512591 c 0,-0.521908 1.1944576,-1.5657 2.3613523,-2.063501 1.4364141,-0.612778 1.3230563,-0.220426 -0.1249696,0.432544 -0.8292294,0.373929 -1.3585753,0.854432 -1.4816934,1.344973 -0.105353,0.41976 -0.138257,0.801699 -0.07312,0.848755 1.2355533,0.892553 1.9069664,1.483917 1.6815856,1.481091 C 7.3274195,58.554533 6.732,58.184066 6.16,57.733259 Z m 38.516845,0.1272 c 0.507734,-0.384752 0.976448,-0.738044 1.041587,-0.785097 0.06514,-0.04706 0.03223,-0.428995 -0.07312,-0.848755 -0.12312,-0.490541 -0.652464,-0.971044 -1.481696,-1.344973 -1.448026,-0.65297 -1.561382,-1.045322 -0.12497,-0.432544 1.172826,0.500329 2.361354,1.542416 2.361354,2.070406 0,0.407645 -1.915222,2.040506 -2.39336,2.040506 -0.139123,0 0.16247,-0.314794 0.670205,-0.699543 z M 13.38,52.901407 c 0.231,-0.09244 0.507,-0.08107 0.613333,0.02525 0.106334,0.106332 -0.08267,0.181964 -0.42,0.16807 -0.372781,-0.01536 -0.448608,-0.09118 -0.193333,-0.193331 z m 24.32,0 c 0.230998,-0.09244 0.506998,-0.08107 0.613334,0.02525 0.106333,0.106332 -0.08267,0.181964 -0.42,0.16807 C 37.52055,53.079365 37.444726,53.003544 37.7,52.901394 Z M 15.6,52.588072 c 0.22,-0.08877 0.58,-0.08877 0.8,0 0.22,0.08877 0.04,0.161405 -0.4,0.161405 -0.44,0 -0.62,-0.07263 -0.4,-0.161405 z m 19.52,0 c 0.22,-0.08877 0.58,-0.08877 0.8,0 0.22,0.08877 0.04,0.161405 -0.4,0.161405 -0.44,0 -0.62,-0.07263 -0.4,-0.161405 z M 18.96609,52.258245 c 0.31135,-0.08113 0.74335,-0.0758 0.96,0.01187 0.21665,0.08766 -0.03809,0.154038 -0.56609,0.147517 -0.528,-0.0065 -0.70526,-0.07824 -0.39391,-0.159373 z m 12.8,0 c 0.31135,-0.08113 0.74335,-0.0758 0.96,0.01187 0.216649,0.08766 -0.03809,0.154038 -0.56609,0.147517 -0.528,-0.0065 -0.70526,-0.07824 -0.39391,-0.159373 z"
         style="fill:#ececec;stroke-width:0.32" />
      <path
         id="path116"
         d="m 20.08,60.588072 c 0.22,-0.08877 0.58,-0.08877 0.8,0 0.22,0.08877 0.04,0.161405 -0.4,0.161405 -0.44,0 -0.62,-0.07263 -0.4,-0.161405 z m 10.56,0 c 0.22,-0.08877 0.58,-0.08877 0.8,0 0.22,0.08877 0.04,0.161405 -0.4,0.161405 -0.44,0 -0.62,-0.07263 -0.4,-0.161405 z M 6.4451811,57.589867 C 5.587705,56.875503 5.6828842,55.580863 6.6192963,55.221528 c 0.5121655,-0.196537 0.5123312,-0.173168 0.00275,0.389901 -0.7020451,0.77575 -0.6841014,0.996125 0.1537219,1.887949 0.8459981,0.900525 0.6922298,0.942611 -0.3305993,0.09049 z M 44.72,57.553682 c 0.860426,-0.949968 0.881626,-1.164691 0.190403,-1.928483 -0.646425,-0.714295 -0.354531,-0.78361 0.346739,-0.08234 0.734586,0.734586 0.600397,1.494064 -0.387196,2.191447 L 44,58.34861 Z M 16.9,52.581406 c 0.231,-0.09244 0.507,-0.08107 0.613333,0.02525 0.106334,0.106333 -0.08267,0.181965 -0.42,0.168071 C 16.720552,52.759365 16.644725,52.683544 16.9,52.581394 Z m 17.28,0 c 0.230998,-0.09244 0.506998,-0.08107 0.613334,0.02525 0.106333,0.106333 -0.08267,0.181965 -0.42,0.168071 C 34.00055,52.759365 33.924726,52.683544 34.18,52.581394 Z m -13.62,-0.32199 c 0.308,-0.08049 0.812,-0.08049 1.12,0 0.308,0.08049 0.056,0.146346 -0.56,0.146346 -0.616,0 -0.868,-0.06586 -0.56,-0.146346 z m 9.28,0 c 0.308,-0.08049 0.812,-0.08049 1.12,0 0.308,0.08049 0.056,0.146346 -0.56,0.146346 -0.616,0 -0.868,-0.06586 -0.56,-0.146346 z"
         style="fill:#eaeaea;stroke-width:0.32" />
      <path
         id="path114"
         d="m 21.68,60.574168 c 0.396,-0.07628 1.044,-0.07628 1.44,0 0.396,0.07627 0.072,0.138679 -0.72,0.138679 -0.792,0 -1.116,-0.06241 -0.72,-0.138679 z m 6.72,0 c 0.396,-0.07628 1.044,-0.07628 1.44,0 0.396,0.07627 0.072,0.138679 -0.72,0.138679 -0.792,0 -1.116,-0.06241 -0.72,-0.138679 z M 17.22,60.261407 c 0.231,-0.09244 0.507,-0.08107 0.613333,0.02525 0.106334,0.106333 -0.08267,0.181965 -0.42,0.16807 -0.372781,-0.01536 -0.448608,-0.09118 -0.193333,-0.193331 z m 16.64,0 c 0.230998,-0.09244 0.506998,-0.08107 0.613334,0.02525 0.106333,0.106333 -0.08267,0.181965 -0.42,0.16807 C 33.68055,60.439365 33.604726,60.363544 33.86,60.261394 Z m -19.2,-0.32 c 0.231,-0.09244 0.507,-0.08107 0.613333,0.02525 0.106334,0.106333 -0.08267,0.181965 -0.42,0.16807 -0.372781,-0.01536 -0.448608,-0.09118 -0.193333,-0.193331 z m 21.76,0 c 0.230998,-0.09244 0.506998,-0.08107 0.613334,0.02525 0.106333,0.106333 -0.08267,0.181965 -0.42,0.16807 C 36.24055,60.119365 36.164726,60.043544 36.42,59.941394 Z M 6.706489,57.425621 C 5.8458906,56.509554 6.0214784,55.906811 7.3776461,55.121727 L 8.16,54.668821 7.44,55.213442 c -0.9192579,0.695344 -0.9234074,1.887798 -0.0088,2.528416 0.3911613,0.273977 0.5602624,0.498144 0.3757805,0.498144 -0.1844816,0 -0.6797037,-0.366471 -1.1004935,-0.814381 z m 37.382308,0.316237 c 0.851885,-0.596685 0.927401,-1.814592 0.15023,-2.422826 -0.514051,-0.40231 -0.508838,-0.409981 0.06235,-0.09172 1.193284,0.664893 1.344183,1.312621 0.512128,2.198304 -0.42079,0.44791 -0.916009,0.814381 -1.100492,0.814381 -0.184484,0 -0.01539,-0.224167 0.375779,-0.498144 z M 13.06,53.221407 c 0.231,-0.09244 0.507,-0.08107 0.613333,0.02525 0.106334,0.106332 -0.08267,0.181964 -0.42,0.16807 -0.372781,-0.01536 -0.448608,-0.09118 -0.193333,-0.193331 z m 24.96,0 c 0.230998,-0.09244 0.506998,-0.08107 0.613334,0.02525 0.106333,0.106332 -0.08267,0.181964 -0.42,0.16807 C 37.84055,53.399365 37.764726,53.323544 38.02,53.221394 Z m -23.04,-0.32 c 0.231,-0.09244 0.507,-0.08107 0.613333,0.02525 0.106334,0.106332 -0.08267,0.181964 -0.42,0.16807 -0.372781,-0.01536 -0.448608,-0.09118 -0.193333,-0.193331 z m 21.12,0 c 0.230998,-0.09244 0.506998,-0.08107 0.613334,0.02525 0.106333,0.106332 -0.08267,0.181964 -0.42,0.16807 C 35.92055,53.079365 35.844726,53.003544 36.1,52.901394 Z M 17.86,52.581406 c 0.231,-0.09244 0.507,-0.08107 0.613333,0.02525 0.106334,0.106333 -0.08267,0.181965 -0.42,0.168071 -0.372781,-0.01536 -0.448608,-0.09118 -0.193333,-0.193331 z m 15.36,0 c 0.230998,-0.09244 0.506998,-0.08107 0.613334,0.02525 0.106333,0.106333 -0.08267,0.181965 -0.42,0.168071 C 33.04055,52.759365 32.964726,52.683544 33.22,52.581394 Z M 23.93254,52.24275 c 1.106897,-0.06267 2.834897,-0.06215 3.84,0.0013 1.005103,0.0633 0.09946,0.11457 -2.01254,0.11394 -2.112,-6.4e-4 -2.934357,-0.05242 -1.82746,-0.115088 z"
         style="fill:#e8e8e8;stroke-width:0.32" />
      <path
         id="path112"
         d="m 24.552863,60.569048 c 0.568074,-0.07069 1.576074,-0.07185 2.24,-0.0026 0.663925,0.06927 0.199137,0.127111 -1.032863,0.128532 -1.232,0.0013 -1.775212,-0.05526 -1.207137,-0.125949 z M 18.32609,60.258245 c 0.31135,-0.08113 0.74335,-0.0758 0.96,0.01187 0.21665,0.08766 -0.03809,0.154039 -0.56609,0.147517 -0.528,-0.0065 -0.70526,-0.07824 -0.39391,-0.159373 z m 14.08,0 c 0.31135,-0.08113 0.74335,-0.0758 0.96,0.01187 0.216649,0.08766 -0.03809,0.154039 -0.56609,0.147517 -0.528,-0.0065 -0.705261,-0.07824 -0.39391,-0.159373 z M 15.62,59.941407 c 0.231,-0.09244 0.507,-0.08107 0.613333,0.02525 0.106334,0.106333 -0.08267,0.181965 -0.42,0.16807 -0.372781,-0.01536 -0.448608,-0.09118 -0.193333,-0.193331 z m 19.84,0 c 0.230998,-0.09244 0.506998,-0.08107 0.613334,0.02525 0.106333,0.106333 -0.08267,0.181965 -0.42,0.16807 C 35.28055,60.119365 35.204726,60.043544 35.46,59.941394 Z M 7.76,57.923509 c -1.4204029,-0.866035 -1.4058736,-1.965187 0.037771,-2.857408 1.4591933,-0.90183 1.8481091,-0.848883 0.4895517,0.06665 -1.3825565,0.931706 -1.3825565,1.762804 0,2.694509 C 9.6192122,58.724815 9.1998,58.801371 7.76,57.923509 Z m 35.472678,-0.09625 C 43.837248,57.419835 44.32,56.821679 44.32,56.480002 c 0,-0.341677 -0.482752,-0.939834 -1.087322,-1.347255 -1.358556,-0.915529 -0.969641,-0.968476 0.489552,-0.06665 1.443642,0.892221 1.458173,1.991373 0.03777,2.857408 -1.439798,0.877862 -1.859213,0.801306 -0.527322,-0.09625 z M 15.94,52.901407 c 0.231,-0.09244 0.507,-0.08107 0.613333,0.02525 0.106334,0.106332 -0.08267,0.181964 -0.42,0.16807 -0.372781,-0.01536 -0.448608,-0.09118 -0.193333,-0.193331 z m 19.2,0 c 0.230998,-0.09244 0.506998,-0.08107 0.613334,0.02525 0.106333,0.106332 -0.08267,0.181964 -0.42,0.16807 C 34.96055,53.079365 34.884726,53.003544 35.14,52.901394 Z M 18.8,52.588072 c 0.22,-0.08877 0.58,-0.08877 0.8,0 0.22,0.08877 0.04,0.161405 -0.4,0.161405 -0.44,0 -0.62,-0.07263 -0.4,-0.161405 z m 13.12,0 c 0.22,-0.08877 0.58,-0.08877 0.8,0 0.22,0.08877 0.04,0.161405 -0.4,0.161405 -0.44,0 -0.62,-0.07263 -0.4,-0.161405 z"
         style="fill:#e6e6e6;stroke-width:0.32" />
      <path
         id="path110"
         d="m 19.78,60.261407 c 0.231,-0.09244 0.507,-0.08107 0.613333,0.02525 0.106334,0.106333 -0.08267,0.181965 -0.42,0.16807 -0.372781,-0.01536 -0.448608,-0.09118 -0.193333,-0.193331 z m 11.52,0 c 0.231,-0.09244 0.507,-0.08107 0.613333,0.02525 0.106334,0.106333 -0.08267,0.181965 -0.42,0.16807 C 31.120552,60.439365 31.044725,60.363544 31.3,60.261394 Z m -16.96,-0.64 c 0.231,-0.09244 0.507,-0.08107 0.613333,0.02525 0.106334,0.106333 -0.08267,0.181965 -0.42,0.16807 -0.372781,-0.01536 -0.448608,-0.09118 -0.193333,-0.193331 z m 22.4,0 c 0.230998,-0.09244 0.506998,-0.08107 0.613334,0.02525 0.106333,0.106333 -0.08267,0.181965 -0.42,0.16807 C 36.56055,59.799365 36.484726,59.723544 36.74,59.621394 Z M 7.5695962,57.334805 C 6.8659171,56.55725 6.9010432,56.216843 7.76,55.489599 c 0.7192733,-0.608983 0.7194349,-0.608925 0.16,0.0556 -0.6934112,0.82367 -0.6973021,1.052691 -0.030403,1.789606 0.2912778,0.321859 0.4575958,0.585197 0.3695958,0.585197 -0.088,0 -0.398318,-0.263338 -0.6895966,-0.585197 z M 43.6,57.414805 c 0.308,-0.365859 0.56,-0.786518 0.56,-0.934803 0,-0.148285 -0.252,-0.568944 -0.56,-0.934803 -0.559434,-0.664525 -0.559274,-0.664583 0.16,-0.0556 0.396,0.335276 0.72,0.78096 0.72,0.990403 0,0.209443 -0.324,0.655126 -0.72,0.990403 -0.719274,0.608982 -0.719434,0.608925 -0.16,-0.0556 z m -23.35391,-4.83656 c 0.31135,-0.08113 0.74335,-0.0758 0.96,0.01187 0.21665,0.08766 -0.03809,0.154038 -0.56609,0.147517 -0.528,-0.0065 -0.70526,-0.07824 -0.39391,-0.159373 z m 10.24,0 c 0.31135,-0.08113 0.74335,-0.0758 0.96,0.01187 0.21665,0.08766 -0.03809,0.154038 -0.56609,0.147517 -0.528,-0.0065 -0.70526,-0.07824 -0.39391,-0.159373 z"
         style="fill:#e4e4e4;stroke-width:0.32" />
      <path
         id="path108"
         d="m 20.88,60.259416 c 0.308,-0.08049 0.812,-0.08049 1.12,0 0.308,0.08049 0.056,0.146346 -0.56,0.146346 -0.616,0 -0.868,-0.06586 -0.56,-0.146346 z m 8.64,0 c 0.308,-0.08049 0.812,-0.08049 1.12,0 0.308,0.08049 0.056,0.146346 -0.56,0.146346 -0.616,0 -0.868,-0.06586 -0.56,-0.146346 z M 8.1242576,57.490427 c -1.0488944,-0.90222 -0.895281,-1.54488 0.5849965,-2.447398 1.4465749,-0.881971 1.8759209,-0.811859 0.5402835,0.08823 -1.3610714,0.917226 -1.5490701,1.756618 -0.5632461,2.514829 0.4145395,0.318826 0.6537386,0.582886 0.531553,0.5868 -0.1221856,0.0039 -0.6142999,-0.330192 -1.0935869,-0.742458 z m 34.7094514,0.18425 c 0.982269,-0.792739 0.797673,-1.626298 -0.563248,-2.543421 -1.335635,-0.900086 -0.906291,-0.970198 0.540285,-0.08823 1.693257,1.032371 1.670278,2.072397 -0.06443,2.91592 -0.560487,0.272544 -0.546605,0.227392 0.08739,-0.284272 z M 15.3,53.221407 c 0.231,-0.09244 0.507,-0.08107 0.613333,0.02525 0.106334,0.106332 -0.08267,0.181964 -0.42,0.16807 C 15.120552,53.399365 15.044725,53.323544 15.3,53.221394 Z m 20.48,0 c 0.230998,-0.09244 0.506998,-0.08107 0.613334,0.02525 0.106333,0.106332 -0.08267,0.181964 -0.42,0.16807 C 35.60055,53.399365 35.524726,53.323544 35.78,53.221394 Z M 17.52,52.908072 c 0.22,-0.08877 0.58,-0.08877 0.8,0 0.22,0.08877 0.04,0.161405 -0.4,0.161405 -0.44,0 -0.62,-0.07263 -0.4,-0.161405 z m 15.68,0 c 0.22,-0.08877 0.58,-0.08877 0.8,0 0.22,0.08877 0.04,0.161405 -0.4,0.161405 -0.44,0 -0.62,-0.07263 -0.4,-0.161405 z M 22.003731,52.573678 c 0.398052,-0.07654 0.974052,-0.07364 1.28,0.0065 0.305948,0.08009 -0.01973,0.14272 -0.723731,0.139168 -0.704,-0.0036 -0.954321,-0.06908 -0.556269,-0.145625 z m 6.4,0 c 0.398052,-0.07654 0.974052,-0.07364 1.28,0.0065 0.305948,0.08009 -0.01973,0.14272 -0.723731,0.139168 -0.704,-0.0036 -0.954321,-0.06908 -0.556269,-0.145625 z"
         style="fill:#e2e2e2;stroke-width:0.32" />
      <path
         id="path106"
         d="m 24.091684,60.243176 c 1.018426,-0.0637 2.602426,-0.0631 3.52,0.0013 0.917574,0.06442 0.08432,0.116535 -1.851684,0.115812 -1.936,-6.4e-4 -2.686742,-0.05343 -1.668316,-0.117124 z M 17.84,59.948072 c 0.22,-0.08877 0.58,-0.08877 0.8,0 0.22,0.08877 0.04,0.161405 -0.4,0.161405 -0.44,0 -0.62,-0.07263 -0.4,-0.161405 z m 15.04,0 c 0.22,-0.08877 0.58,-0.08877 0.8,0 0.22,0.08877 0.04,0.161405 -0.4,0.161405 -0.44,0 -0.62,-0.07263 -0.4,-0.161405 z M 13.7,59.301407 c 0.231,-0.09244 0.507,-0.08107 0.613333,0.02525 0.106334,0.106333 -0.08267,0.181965 -0.42,0.16807 C 13.520552,59.479365 13.444725,59.403544 13.7,59.301394 Z m 23.68,0 c 0.230998,-0.09244 0.506998,-0.08107 0.613334,0.02525 0.106333,0.106333 -0.08267,0.181965 -0.42,0.16807 C 37.20055,59.479365 37.124726,59.403544 37.38,59.301394 Z M 8.72,57.704187 C 8.324,57.427951 8,56.953823 8,56.650568 c 0,-0.303257 0.324,-0.825693 0.72,-1.160969 0.7192733,-0.608983 0.7194349,-0.608925 0.16,0.0556 -0.7568426,0.899017 -0.7076112,1.25224 0.2831549,2.031577 C 10.141105,58.346031 9.7863421,58.448027 8.72,57.704187 Z m 33.636845,-0.127411 c 0.990768,-0.779337 1.039997,-1.13256 0.283155,-2.031577 -0.559434,-0.664525 -0.559274,-0.664583 0.16,-0.0556 0.93751,0.793753 0.912995,1.590342 -0.06874,2.2336 -1.124663,0.736908 -1.373613,0.639548 -0.374413,-0.146423 z M 18.82,52.901407 c 0.231,-0.09244 0.507,-0.08107 0.613333,0.02525 0.106334,0.106332 -0.08267,0.181964 -0.42,0.16807 -0.372781,-0.01536 -0.448608,-0.09118 -0.193333,-0.193331 z m 13.44,0 c 0.230998,-0.09244 0.506998,-0.08107 0.613334,0.02525 0.106333,0.106332 -0.08267,0.181964 -0.42,0.16807 C 32.08055,53.079365 32.004726,53.003544 32.26,52.901394 Z m -7.707137,-0.332359 c 0.568074,-0.07069 1.576074,-0.07185 2.24,-0.0026 0.663925,0.06927 0.199137,0.12711 -1.032863,0.128531 -1.232,0.0013 -1.775212,-0.05526 -1.207137,-0.125949 z"
         style="fill:#e0e0e0;stroke-width:0.32" />
      <path
         id="path104"
         d="m 19.12,59.948072 c 0.22,-0.08877 0.58,-0.08877 0.8,0 0.22,0.08877 0.04,0.161405 -0.4,0.161405 -0.44,0 -0.62,-0.07263 -0.4,-0.161405 z m 12.48,0 c 0.22,-0.08877 0.58,-0.08877 0.8,0 0.22,0.08877 0.04,0.161405 -0.4,0.161405 -0.44,0 -0.62,-0.07263 -0.4,-0.161405 z M 8.7830483,57.261269 C 8.0974099,56.50365 8.3458877,55.863851 9.6176461,55.11229 10.265024,54.729714 10.248178,54.771013 9.52,55.351666 c -1.0183917,0.81207 -1.0823942,1.174297 -0.3504038,1.983139 0.2912777,0.321859 0.4575958,0.585197 0.3695958,0.585197 -0.088,0 -0.4282646,-0.296429 -0.7561437,-0.658733 z M 42.331878,57.414805 C 43.079626,56.507346 43.025229,56.169186 42,55.351666 41.271821,54.771013 41.254976,54.729714 41.90236,55.11229 c 1.366547,0.807577 1.549741,1.425472 0.665082,2.243264 -0.648122,0.599133 -0.688867,0.609382 -0.235559,0.05925 z M 19.76,52.908072 c 0.22,-0.08877 0.58,-0.08877 0.8,0 0.22,0.08877 0.04,0.161405 -0.4,0.161405 -0.44,0 -0.62,-0.07263 -0.4,-0.161405 z m 11.2,0 c 0.22,-0.08877 0.58,-0.08877 0.8,0 0.22,0.08877 0.04,0.161405 -0.4,0.161405 -0.44,0 -0.62,-0.07263 -0.4,-0.161405 z"
         style="fill:#dedede;stroke-width:0.32" />
      <path
         id="path102"
         d="m 20.4,59.948072 c 0.22,-0.08877 0.58,-0.08877 0.8,0 0.22,0.08877 0.04,0.161405 -0.4,0.161405 -0.44,0 -0.62,-0.07263 -0.4,-0.161405 z m 9.92,0 c 0.22,-0.08877 0.58,-0.08877 0.8,0 0.22,0.08877 0.04,0.161405 -0.4,0.161405 -0.44,0 -0.62,-0.07263 -0.4,-0.161405 z m -13.1,-0.326665 c 0.231,-0.09244 0.507,-0.08107 0.613333,0.02525 0.106334,0.106333 -0.08267,0.181965 -0.42,0.16807 -0.372781,-0.01536 -0.448608,-0.09118 -0.193333,-0.193331 z m 16.64,0 c 0.230998,-0.09244 0.506998,-0.08107 0.613334,0.02525 0.106333,0.106333 -0.08267,0.181965 -0.42,0.16807 C 33.68055,59.799365 33.604726,59.723544 33.86,59.621394 Z m -18.88,-0.32 c 0.231,-0.09244 0.507,-0.08107 0.613333,0.02525 0.106334,0.106333 -0.08267,0.181965 -0.42,0.16807 -0.372781,-0.01536 -0.448608,-0.09118 -0.193333,-0.193331 z m 21.12,0 c 0.230998,-0.09244 0.506998,-0.08107 0.613334,0.02525 0.106333,0.106333 -0.08267,0.181965 -0.42,0.16807 C 35.92055,59.479365 35.844726,59.403544 36.1,59.301394 Z M 9.9892541,57.916975 C 8.6692595,57.112178 8.3926086,56.422856 9.1136227,55.735189 c 0.5287015,-0.50425 0.5411968,-0.496122 0.2161571,0.140608 -0.4157616,0.814448 -0.027869,1.41631 1.3902202,2.157094 0.528,0.275818 0.816,0.506714 0.64,0.513101 -0.176,0.0064 -0.792836,-0.276669 -1.3707459,-0.629017 z M 40.8,58.032891 c 1.41809,-0.740784 1.805981,-1.342646 1.390221,-2.157094 -0.32504,-0.63673 -0.312544,-0.644858 0.216157,-0.140608 0.311532,0.297123 0.475283,0.758922 0.368128,1.03817 -0.202932,0.528825 -2.066781,1.792518 -2.614506,1.772633 -0.176,-0.0064 0.112,-0.237283 0.64,-0.513101 z M 10.154667,55.000293 c 0.217066,-0.218694 0.475277,-0.317014 0.573801,-0.21849 0.09852,0.09853 -0.07908,0.277456 -0.394667,0.397626 -0.4560634,0.173658 -0.4928199,0.136902 -0.179134,-0.179136 z M 40.96,55.040002 c -0.288413,-0.186387 -0.327882,-0.312157 -0.09889,-0.315101 0.209612,-0.0026 0.470112,0.139101 0.578886,0.315101 0.245536,0.397289 0.134758,0.397289 -0.48,0 z M 15.3,53.541407 c 0.231,-0.09244 0.507,-0.08107 0.613333,0.02525 0.106334,0.106332 -0.08267,0.181964 -0.42,0.16807 C 15.120552,53.719365 15.044725,53.643544 15.3,53.541394 Z m 20.48,0 c 0.230998,-0.09244 0.506998,-0.08107 0.613334,0.02525 0.106333,0.106332 -0.08267,0.181964 -0.42,0.16807 C 35.60055,53.719365 35.524726,53.643544 35.78,53.541394 Z m -18.24,-0.32 c 0.231,-0.09244 0.507,-0.08107 0.613333,0.02525 0.106334,0.106332 -0.08267,0.181964 -0.42,0.16807 -0.372781,-0.01536 -0.448608,-0.09118 -0.193333,-0.193331 z m 16,0 c 0.230998,-0.09244 0.506998,-0.08107 0.613334,0.02525 0.106333,0.106332 -0.08267,0.181964 -0.42,0.16807 C 33.36055,53.399365 33.284726,53.323544 33.54,53.221394 Z m -12.5,-0.313335 c 0.22,-0.08877 0.58,-0.08877 0.8,0 0.22,0.08877 0.04,0.161405 -0.4,0.161405 -0.44,0 -0.62,-0.07263 -0.4,-0.161405 z m 8.64,0 c 0.22,-0.08877 0.58,-0.08877 0.8,0 0.22,0.08877 0.04,0.161405 -0.4,0.161405 -0.44,0 -0.62,-0.07263 -0.4,-0.161405 z"
         style="fill:#dcdcdc;stroke-width:0.32" />
      <path
         id="path100"
         d="m 21.84609,59.938245 c 0.31135,-0.08113 0.74335,-0.0758 0.96,0.01187 0.21665,0.08766 -0.03809,0.154039 -0.56609,0.147517 -0.528,-0.0065 -0.70526,-0.07824 -0.39391,-0.159373 z m 7.04,0 c 0.31135,-0.08113 0.74335,-0.0758 0.96,0.01187 0.21665,0.08766 -0.03809,0.154039 -0.56609,0.147517 -0.528,-0.0065 -0.70526,-0.07824 -0.39391,-0.159373 z M 9.3036576,57.004207 c -0.2325232,-0.434474 -0.1866173,-0.759392 0.1695414,-1.2 0.4741373,-0.58656 0.4792407,-0.585754 0.1747348,0.02752 -0.1996932,0.402188 -0.2031604,0.838217 -0.00954,1.2 0.1672688,0.312544 0.2321254,0.568262 0.1441254,0.568262 -0.088,0 -0.303487,-0.268109 -0.4788602,-0.595795 z m 32.5715554,0.107532 c 0.199728,-0.416966 0.200355,-0.84512 0.0016,-1.2 -0.169824,-0.303456 -0.234679,-0.551737 -0.144125,-0.551737 0.09055,0 0.308128,0.268109 0.483501,0.595795 0.232217,0.433904 0.187005,0.759971 -0.166394,1.2 -0.468598,0.583466 -0.474598,0.581955 -0.174736,-0.04406 z m -19.231482,-4.21806 c 0.398052,-0.07654 0.974052,-0.07364 1.28,0.0065 0.305948,0.08009 -0.01973,0.14272 -0.723731,0.139168 -0.704,-0.0036 -0.954321,-0.06909 -0.556269,-0.145626 z m 5.12,0 c 0.398052,-0.07654 0.974052,-0.07364 1.28,0.0065 0.305948,0.08009 -0.01973,0.14272 -0.723731,0.139168 -0.704,-0.0036 -0.954321,-0.06909 -0.556269,-0.145626 z"
         style="fill:#dadada;stroke-width:0.32" />
      <path
         id="path98"
         d="m 24.409655,59.924396 c 0.841311,-0.06614 2.137311,-0.06534 2.88,0.0019 0.74269,0.06711 0.05435,0.121222 -1.529655,0.120246 -1.584,-9.6e-4 -2.191655,-0.05589 -1.350345,-0.122019 z M 18.82,59.621407 c 0.231,-0.09244 0.507,-0.08107 0.613333,0.02525 0.106334,0.106333 -0.08267,0.181965 -0.42,0.16807 -0.372781,-0.01536 -0.448608,-0.09118 -0.193333,-0.193331 z m 13.44,0 c 0.230998,-0.09244 0.506998,-0.08107 0.613334,0.02525 0.106333,0.106333 -0.08267,0.181965 -0.42,0.16807 C 32.08055,59.799365 32.004726,59.723544 32.26,59.621394 Z M 9.9272579,57.287259 c -0.7246144,-0.724614 -0.5647485,-1.461081 0.4303901,-1.98271 0.659748,-0.345824 0.663801,-0.336746 0.122352,0.274086 -0.693767,0.782669 -0.6978525,1.018647 -0.0304,1.75617 0.713819,0.788762 0.273927,0.74872 -0.5223384,-0.04755 z m 31.1306841,0.06132 c 0.680458,-0.751898 0.678096,-0.984708 -0.01795,-1.76994 -0.541974,-0.611424 -0.537721,-0.62008 0.132112,-0.268864 0.38066,0.199594 0.757204,0.544548 0.836759,0.766564 0.200131,0.558505 -0.280931,1.406099 -0.942039,1.659792 -0.518275,0.19888 -0.518803,0.175897 -0.0089,-0.387552 z M 16.58,53.541407 c 0.231,-0.09244 0.507,-0.08107 0.613333,0.02525 0.106334,0.106332 -0.08267,0.181964 -0.42,0.16807 -0.372781,-0.01536 -0.448608,-0.09118 -0.193333,-0.193331 z m 17.92,0 c 0.230998,-0.09244 0.506998,-0.08107 0.613334,0.02525 0.106333,0.106332 -0.08267,0.181964 -0.42,0.16807 C 34.32055,53.719365 34.244726,53.643544 34.5,53.541394 Z M 19.12,53.228072 c 0.22,-0.08877 0.58,-0.08877 0.8,0 0.22,0.08877 0.04,0.161405 -0.4,0.161405 -0.44,0 -0.62,-0.07263 -0.4,-0.161405 z m 12.48,0 c 0.22,-0.08877 0.58,-0.08877 0.8,0 0.22,0.08877 0.04,0.161405 -0.4,0.161405 -0.44,0 -0.62,-0.07263 -0.4,-0.161405 z m -6.5556,-0.337696 c 0.48642,-0.07356 1.20642,-0.07159 1.6,0.0044 0.39358,0.07596 -0.0044,0.136135 -0.8844,0.133735 -0.88,-0.0026 -1.20202,-0.06455 -0.7156,-0.138103 z"
         style="fill:#d8d8d8;stroke-width:0.32" />
      <path
         id="path96"
         d="m 19.76,59.628072 c 0.22,-0.08877 0.58,-0.08877 0.8,0 0.22,0.08877 0.04,0.161405 -0.4,0.161405 -0.44,0 -0.62,-0.07263 -0.4,-0.161405 z m 11.2,0 c 0.22,-0.08877 0.58,-0.08877 0.8,0 0.22,0.08877 0.04,0.161405 -0.4,0.161405 -0.44,0 -0.62,-0.07263 -0.4,-0.161405 z M 10.449596,57.334805 C 10.158318,57.012946 9.92,56.603266 9.92,56.424402 c 0,-0.387175 1.04909,-1.3844 1.456399,-1.3844 0.157303,0 -0.03404,0.224166 -0.425197,0.498144 -0.848951,0.59463 -0.891197,1.012569 -0.181606,1.796659 0.291278,0.321859 0.457596,0.585197 0.369596,0.585197 -0.088,0 -0.398318,-0.263338 -0.689596,-0.585197 z m 30.270404,0.08 c 0.738518,-0.877251 0.706394,-1.275974 -0.151203,-1.876659 -0.391159,-0.273978 -0.557479,-0.498144 -0.369594,-0.498144 0.418547,0 1.400797,1.048726 1.400797,1.4956 0,0.178864 -0.324,0.599526 -0.72,0.934803 -0.719274,0.608982 -0.719434,0.608925 -0.16,-0.0556 z M 17.54,53.541407 c 0.231,-0.09244 0.507,-0.08107 0.613333,0.02525 0.106334,0.106332 -0.08267,0.181964 -0.42,0.16807 -0.372781,-0.01536 -0.448608,-0.09118 -0.193333,-0.193331 z m 16,0 c 0.230998,-0.09244 0.506998,-0.08107 0.613334,0.02525 0.106333,0.106332 -0.08267,0.181964 -0.42,0.16807 C 33.36055,53.719365 33.284726,53.643544 33.54,53.541394 Z M 20.4,53.228072 c 0.22,-0.08877 0.58,-0.08877 0.8,0 0.22,0.08877 0.04,0.161405 -0.4,0.161405 -0.44,0 -0.62,-0.07263 -0.4,-0.161405 z m 9.92,0 c 0.22,-0.08877 0.58,-0.08877 0.8,0 0.22,0.08877 0.04,0.161405 -0.4,0.161405 -0.44,0 -0.62,-0.07263 -0.4,-0.161405 z"
         style="fill:#d6d6d6;stroke-width:0.32" />
      <path
         id="path94"
         d="m 21.06,59.621407 c 0.231,-0.09244 0.507,-0.08107 0.613333,0.02525 0.106334,0.106333 -0.08267,0.181965 -0.42,0.16807 -0.372781,-0.01536 -0.448608,-0.09118 -0.193333,-0.193331 z m 8.96,0 c 0.231,-0.09244 0.507,-0.08107 0.613333,0.02525 0.106334,0.106333 -0.08267,0.181965 -0.42,0.16807 C 29.840552,59.799365 29.764725,59.723544 30.02,59.621394 Z M 10.769596,57.334805 c -0.668512,-0.738698 -0.668081,-1.141987 0.0018,-1.695622 0.48716,-0.402612 0.493821,-0.377492 0.08,0.30166 -0.410917,0.674388 -0.383644,0.796381 0.304041,1.36 0.415498,0.340538 0.617817,0.619159 0.449597,0.619159 -0.168221,0 -0.544174,-0.263338 -0.835451,-0.585197 z m 29.594954,-0.03396 c 0.687684,-0.563619 0.714957,-0.685612 0.304039,-1.36 -0.413821,-0.679152 -0.407159,-0.704272 0.08,-0.30166 0.292278,0.241552 0.531411,0.615232 0.531411,0.830406 0,0.420669 -1.008611,1.450413 -1.420646,1.450413 -0.137642,0 0.0897,-0.278621 0.505196,-0.619159 z M 21.68,53.228072 c 0.22,-0.08877 0.58,-0.08877 0.8,0 0.22,0.08877 0.04,0.161405 -0.4,0.161405 -0.44,0 -0.62,-0.07263 -0.4,-0.161405 z m 7.36,0 c 0.22,-0.08877 0.58,-0.08877 0.8,0 0.22,0.08877 0.04,0.161405 -0.4,0.161405 -0.44,0 -0.62,-0.07263 -0.4,-0.161405 z"
         style="fill:#d4d4d4;stroke-width:0.32" />
      <path
         id="path92"
         d="m 22.16,59.619416 c 0.308,-0.08049 0.812,-0.08049 1.12,0 0.308,0.08049 0.056,0.146346 -0.56,0.146346 -0.616,0 -0.868,-0.06586 -0.56,-0.146346 z m 6.08,0 c 0.308,-0.08049 0.812,-0.08049 1.12,0 0.308,0.08049 0.056,0.146346 -0.56,0.146346 -0.616,0 -0.868,-0.06586 -0.56,-0.146346 z M 18.5,59.301407 c 0.231,-0.09244 0.507,-0.08107 0.613333,0.02525 0.106334,0.106333 -0.08267,0.181965 -0.42,0.16807 C 18.320552,59.479365 18.244725,59.403544 18.5,59.301394 Z m 14.08,0 c 0.230998,-0.09244 0.506998,-0.08107 0.613334,0.02525 0.106333,0.106333 -0.08267,0.181965 -0.42,0.16807 C 32.40055,59.479365 32.324726,59.403544 32.58,59.301394 Z M 10.944,57.216002 c -0.2112,-0.2112 -0.384,-0.567882 -0.384,-0.792624 0,-0.461709 1.52603,-1.564013 1.794102,-1.295939 0.09577,0.09577 -0.11142,0.264758 -0.460425,0.375526 -0.803614,0.255059 -1.134451,1.085936 -0.660016,1.657597 0.448957,0.54096 0.236518,0.581619 -0.289661,0.05544 z m 29.30152,0.02454 c 0.507488,-0.650055 0.214198,-1.473088 -0.619197,-1.737597 -0.349005,-0.110768 -0.556195,-0.279757 -0.460425,-0.375526 0.27623,-0.276231 1.794102,0.841177 1.794102,1.320758 0,0.23839 -0.252,0.631072 -0.56,0.872624 -0.498032,0.390582 -0.515126,0.381702 -0.15448,-0.08026 z M 18.82,53.541407 c 0.231,-0.09244 0.507,-0.08107 0.613333,0.02525 0.106334,0.106332 -0.08267,0.181964 -0.42,0.16807 -0.372781,-0.01536 -0.448608,-0.09118 -0.193333,-0.193331 z m 13.44,0 c 0.230998,-0.09244 0.506998,-0.08107 0.613334,0.02525 0.106333,0.106332 -0.08267,0.181964 -0.42,0.16807 C 32.08055,53.719365 32.004726,53.643544 32.26,53.541394 Z m -8.009273,-0.337693 c 0.9299,-0.06485 2.3699,-0.06417 3.2,0.0016 0.8301,0.06568 0.06927,0.118733 -1.690727,0.117901 -1.76,-9.6e-4 -2.439173,-0.05457 -1.509273,-0.119415 z"
         style="fill:#d2d2d2;stroke-width:0.32" />
      <path
         id="path90"
         d="m 24.552863,59.609048 c 0.568074,-0.07069 1.576074,-0.07185 2.24,-0.0026 0.663925,0.06927 0.199137,0.127111 -1.032863,0.128532 -1.232,0.0013 -1.775212,-0.05526 -1.207137,-0.125949 z M 19.46,59.301407 c 0.231,-0.09244 0.507,-0.08107 0.613333,0.02525 0.106334,0.106333 -0.08267,0.181965 -0.42,0.16807 -0.372781,-0.01536 -0.448608,-0.09118 -0.193333,-0.193331 z m 12.16,0 c 0.231,-0.09244 0.506998,-0.08107 0.613334,0.02525 0.106333,0.106333 -0.08267,0.181965 -0.420001,0.16807 -0.372781,-0.01536 -0.448608,-0.09118 -0.193333,-0.193331 z m -19.7,-1.697898 c -0.572,-0.348755 -1.04,-0.76993 -1.04,-0.935946 0,-0.337811 0.895065,-1.307561 1.206857,-1.307561 0.110629,0 0.02834,0.1728 -0.182857,0.384 -0.635893,0.635894 -0.43996,1.191286 0.656,1.859507 0.572,0.348755 0.896,0.634099 0.72,0.634099 -0.176,0 -0.788,-0.285344 -1.36,-0.634099 z m 27.04,0 c 1.095962,-0.668221 1.291894,-1.223613 0.656,-1.859507 -0.2112,-0.2112 -0.293485,-0.384 -0.182858,-0.384 0.311792,0 1.206858,0.96975 1.206858,1.307561 0,0.332781 -1.891302,1.570045 -2.4,1.570045 -0.176,0 0.148,-0.285344 0.72,-0.634099 z M 17.22,53.861407 c 0.231,-0.09244 0.507,-0.08107 0.613333,0.02525 0.106334,0.106332 -0.08267,0.181964 -0.42,0.16807 -0.372781,-0.01536 -0.448608,-0.09118 -0.193333,-0.193331 z m 16.64,0 c 0.230998,-0.09244 0.506998,-0.08107 0.613334,0.02525 0.106333,0.106332 -0.08267,0.181964 -0.42,0.16807 C 33.68055,54.039365 33.604726,53.963544 33.86,53.861394 Z m -14.1,-0.313335 c 0.22,-0.08877 0.58,-0.08877 0.8,0 0.22,0.08877 0.04,0.161405 -0.4,0.161405 -0.44,0 -0.62,-0.07263 -0.4,-0.161405 z m 11.2,0 c 0.22,-0.08877 0.58,-0.08877 0.8,0 0.22,0.08877 0.04,0.161405 -0.4,0.161405 -0.44,0 -0.62,-0.07263 -0.4,-0.161405 z"
         style="fill:#d0d0d0;stroke-width:0.32" />
      <path
         id="path86"
         d="m 20.42,59.301407 c 0.231,-0.09244 0.507,-0.08107 0.613333,0.02525 0.106334,0.106333 -0.08267,0.181965 -0.42,0.16807 -0.372781,-0.01536 -0.448608,-0.09118 -0.193333,-0.193331 z m 10.24,0 c 0.231,-0.09244 0.507,-0.08107 0.613333,0.02525 0.106334,0.106333 -0.08267,0.181965 -0.42,0.16807 C 30.480552,59.479365 30.404725,59.403544 30.66,59.301394 Z M 11.904,57.216002 c -0.529852,-0.529853 -0.480488,-1.057895 0.14741,-1.576819 0.484304,-0.40025 0.493102,-0.377661 0.09925,0.254835 -0.357117,0.573507 -0.35924,0.781875 -0.01223,1.2 0.491845,0.592637 0.323706,0.680125 -0.234435,0.121984 z m 27.465338,-0.150016 c 0.365664,-0.587232 0.361264,-0.784176 -0.02858,-1.28 -0.422077,-0.5368 -0.413748,-0.549123 0.09925,-0.146803 0.702889,0.551244 0.712499,1.116422 0.02858,1.681638 -0.484304,0.40025 -0.493101,0.377661 -0.09925,-0.254835 z M 21.06,53.541407 c 0.231,-0.09244 0.507,-0.08107 0.613333,0.02525 0.106334,0.106332 -0.08267,0.181964 -0.42,0.16807 -0.372781,-0.01536 -0.448608,-0.09118 -0.193333,-0.193331 z m 8.96,0 c 0.231,-0.09244 0.507,-0.08107 0.613333,0.02525 0.106334,0.106332 -0.08267,0.181964 -0.42,0.16807 -0.372781,-0.01536 -0.448608,-0.09118 -0.193333,-0.193331 z"
         style="fill:#cecece;stroke-width:0.32" />
      <path
         id="path84"
         d="m 21.52609,59.298245 c 0.31135,-0.08113 0.74335,-0.0758 0.96,0.01187 0.21665,0.08766 -0.03809,0.154039 -0.56609,0.147517 -0.528,-0.0065 -0.70526,-0.07824 -0.39391,-0.159373 z m 7.68,0 c 0.31135,-0.08113 0.74335,-0.0758 0.96,0.01187 0.21665,0.08766 -0.03809,0.154039 -0.56609,0.147517 -0.528,-0.0065 -0.70526,-0.07824 -0.39391,-0.159373 z M 12.224,57.216002 c -0.529852,-0.529853 -0.480488,-1.057895 0.14741,-1.576819 0.484304,-0.40025 0.493102,-0.377661 0.09925,0.254835 -0.357117,0.573507 -0.35924,0.781875 -0.01223,1.2 0.491845,0.592637 0.323706,0.680125 -0.234435,0.121984 z m 26.825338,-0.150016 c 0.365664,-0.587232 0.361264,-0.784176 -0.02858,-1.28 -0.422077,-0.5368 -0.413748,-0.549123 0.09925,-0.146803 0.702889,0.551244 0.712499,1.116422 0.02858,1.681638 -0.484304,0.40025 -0.493101,0.377661 -0.09925,-0.254835 z M 18.5,53.861407 c 0.231,-0.09244 0.507,-0.08107 0.613333,0.02525 0.106334,0.106332 -0.08267,0.181964 -0.42,0.16807 C 18.320552,54.039365 18.244725,53.963544 18.5,53.861394 Z m 14.08,0 c 0.230998,-0.09244 0.506998,-0.08107 0.613334,0.02525 0.106333,0.106332 -0.08267,0.181964 -0.42,0.16807 C 32.40055,54.039365 32.324726,53.963544 32.58,53.861394 Z M 22.16609,53.538245 c 0.31135,-0.08113 0.74335,-0.0758 0.96,0.01187 0.21665,0.08766 -0.03809,0.154038 -0.56609,0.147517 -0.528,-0.0065 -0.70526,-0.07824 -0.39391,-0.159373 z m 6.4,0 c 0.31135,-0.08113 0.74335,-0.0758 0.96,0.01187 0.21665,0.08766 -0.03809,0.154038 -0.56609,0.147517 -0.528,-0.0065 -0.70526,-0.07824 -0.39391,-0.159373 z"
         style="fill:#cccccc;stroke-width:0.32" />
      <path
         id="path82"
         d="m 23.4444,59.290376 c 0.48642,-0.07355 1.20642,-0.07159 1.6,0.0044 0.39358,0.07596 -0.0044,0.136135 -0.8844,0.133735 -0.88,-0.0026 -1.20202,-0.06455 -0.7156,-0.138103 z m 3.2,0 c 0.48642,-0.07355 1.20642,-0.07159 1.6,0.0044 0.39358,0.07596 -0.0044,0.136135 -0.8844,0.133735 -0.88,-0.0026 -1.20202,-0.06455 -0.7156,-0.138103 z M 12.544,57.216002 c -0.2112,-0.2112 -0.384,-0.567882 -0.384,-0.792624 0,-0.490343 1.533986,-1.556058 1.82332,-1.266723 0.111841,0.11184 0.04563,0.203347 -0.14713,0.203347 -0.192762,0 -0.576476,0.226 -0.852698,0.502224 -0.379099,0.379097 -0.421168,0.653673 -0.171599,1.12 0.378474,0.707184 0.286113,0.787782 -0.267893,0.233776 z m 26.122976,-0.153776 c 0.299235,-0.561658 0.273782,-0.795751 -0.130467,-1.2 -0.276224,-0.276224 -0.659936,-0.502224 -0.852701,-0.502224 -0.192762,0 -0.25897,-0.09151 -0.147126,-0.203347 0.297571,-0.297572 1.823318,0.783184 1.823318,1.291542 0,0.23839 -0.239574,0.631072 -0.53239,0.872624 -0.481181,0.396938 -0.496631,0.372064 -0.160634,-0.258595 z M 24.568459,53.525282 c 0.752652,-0.0676 1.904652,-0.06665 2.56,0.0022 0.655347,0.06876 0.03954,0.124067 -1.368459,0.122905 -1.408,-0.0013 -1.944194,-0.05742 -1.191541,-0.12502 z"
         style="fill:#cacaca;stroke-width:0.32" />
      <path
         id="path80"
         d="m 19.78,58.981407 c 0.231,-0.09244 0.507,-0.08107 0.613333,0.02525 0.106334,0.106333 -0.08267,0.181965 -0.42,0.16807 -0.372781,-0.01536 -0.448608,-0.09118 -0.193333,-0.193331 z m 11.52,0 c 0.231,-0.09244 0.507,-0.08107 0.613333,0.02525 0.106334,0.106333 -0.08267,0.181965 -0.42,0.16807 C 31.120552,59.159365 31.044725,59.083544 31.3,58.981394 Z M 12.833587,57.02276 c -0.201835,-0.377133 -0.195274,-0.737664 0.01893,-1.04 0.267852,-0.378061 0.295538,-0.361958 0.151268,0.08798 -0.09712,0.302906 0.04358,0.770906 0.312671,1.04 0.269094,0.269094 0.340041,0.489261 0.157662,0.489261 -0.182379,0 -0.470617,-0.25976 -0.640529,-0.577242 z m 25.369959,0.08798 c 0.269094,-0.269094 0.409795,-0.737094 0.312672,-1.04 -0.144269,-0.449939 -0.116586,-0.466042 0.151267,-0.08798 0.364339,0.514247 -0.05961,1.617242 -0.6216,1.617242 -0.182381,0 -0.111431,-0.220167 0.157661,-0.489262 z M 20.1,53.861407 c 0.231,-0.09244 0.507,-0.08107 0.613333,0.02525 0.106334,0.106332 -0.08267,0.181964 -0.42,0.16807 C 19.920552,54.039365 19.844725,53.963544 20.1,53.861394 Z m 10.88,0 c 0.231,-0.09244 0.507,-0.08107 0.613333,0.02525 0.106334,0.106332 -0.08267,0.181964 -0.42,0.16807 -0.372781,-0.01536 -0.448608,-0.09118 -0.193333,-0.193331 z"
         style="fill:#c8c8c8;stroke-width:0.32" />
      <path
         id="path78"
         d="m 20.74,58.981407 c 0.231,-0.09244 0.507,-0.08107 0.613333,0.02525 0.106334,0.106333 -0.08267,0.181965 -0.42,0.16807 -0.372781,-0.01536 -0.448608,-0.09118 -0.193333,-0.193331 z m 9.6,0 c 0.231,-0.09244 0.507,-0.08107 0.613333,0.02525 0.106334,0.106333 -0.08267,0.181965 -0.42,0.16807 C 30.160552,59.159365 30.084725,59.083544 30.34,58.981394 Z M 13.316454,57.110741 c -0.559361,-0.55936 -0.388402,-1.288608 0.370347,-1.57977 0.462511,-0.177481 0.460583,-0.13582 -0.0182,0.393229 -0.500818,0.553399 -0.500396,0.626861 0.0065,1.13377 0.298117,0.298118 0.449459,0.542032 0.336316,0.542032 -0.113143,0 -0.425881,-0.220167 -0.694975,-0.489261 z m 24.528432,-0.05277 c 0.506909,-0.506909 0.507332,-0.580371 0.0065,-1.13377 -0.478784,-0.529049 -0.480713,-0.57071 -0.01821,-0.393229 0.758749,0.291162 0.929706,1.02041 0.370346,1.57977 -0.269091,0.269094 -0.58183,0.489261 -0.694973,0.489261 -0.113145,0 0.0382,-0.243914 0.336314,-0.542032 z M 21.04,53.868072 c 0.22,-0.08877 0.58,-0.08877 0.8,0 0.22,0.08877 0.04,0.161405 -0.4,0.161405 -0.44,0 -0.62,-0.07263 -0.4,-0.161405 z m 8.64,0 c 0.22,-0.08877 0.58,-0.08877 0.8,0 0.22,0.08877 0.04,0.161405 -0.4,0.161405 -0.44,0 -0.62,-0.07263 -0.4,-0.161405 z"
         style="fill:#c6c6c6;stroke-width:0.32" />
      <path
         id="path76"
         d="m 21.68,58.988072 c 0.22,-0.08877 0.58,-0.08877 0.8,0 0.22,0.08877 0.04,0.161405 -0.4,0.161405 -0.44,0 -0.62,-0.07263 -0.4,-0.161405 z m 7.36,0 c 0.22,-0.08877 0.58,-0.08877 0.8,0 0.22,0.08877 0.04,0.161405 -0.4,0.161405 -0.44,0 -0.62,-0.07263 -0.4,-0.161405 z M 13.647005,57.011941 c -0.498791,-0.551155 -0.489018,-0.626458 0.155734,-1.2 0.684306,-0.608726 0.685682,-0.608294 0.261843,0.08208 -0.351872,0.573145 -0.352943,0.782137 -0.0061,1.2 0.585321,0.70527 0.238493,0.63608 -0.41143,-0.08208 z m 23.85103,-0.02595 c 0.304947,-0.488298 0.290253,-0.733994 -0.07177,-1.2 -0.409619,-0.527267 -0.383382,-0.524666 0.261844,0.02595 0.672627,0.57401 0.684086,0.648394 0.184889,1.2 -0.689798,0.762218 -0.85983,0.750448 -0.37496,-0.02595 z M 22.32,53.868072 c 0.22,-0.08877 0.58,-0.08877 0.8,0 0.22,0.08877 0.04,0.161405 -0.4,0.161405 -0.44,0 -0.62,-0.07263 -0.4,-0.161405 z m 6.08,0 c 0.22,-0.08877 0.58,-0.08877 0.8,0 0.22,0.08877 0.04,0.161405 -0.4,0.161405 -0.44,0 -0.62,-0.07263 -0.4,-0.161405 z"
         style="fill:#c4c4c4;stroke-width:0.32" />
      <path
         id="path74"
         d="m 23.12,58.979416 c 0.308,-0.08049 0.812,-0.08049 1.12,0 0.308,0.08049 0.056,0.146346 -0.56,0.146346 -0.616,0 -0.868,-0.06586 -0.56,-0.146346 z m 4.16,0 c 0.308,-0.08049 0.812,-0.08049 1.12,0 0.308,0.08049 0.056,0.146346 -0.56,0.146346 -0.616,0 -0.868,-0.06586 -0.56,-0.146346 z M 14.057739,57.093179 C 13.589322,56.528773 13.945968,55.659 14.742862,55.422328 14.994288,55.347656 14.912,55.510315 14.56,55.783791 c -0.547493,0.425363 -0.581791,0.592556 -0.237288,1.156723 0.477596,0.782121 0.32865,0.867936 -0.264973,0.152665 z M 37.16424,57.020509 C 37.551101,56.364 37.528182,56.225222 36.96,55.783786 36.608,55.51031 36.525712,55.347651 36.777139,55.422323 c 0.905568,0.268947 1.178375,1.161213 0.541677,1.771671 -0.569558,0.54608 -0.574998,0.539974 -0.154576,-0.173485 z M 19.78,54.181407 c 0.231,-0.09244 0.507,-0.08107 0.613333,0.02525 0.106334,0.106332 -0.08267,0.181964 -0.42,0.16807 -0.372781,-0.01536 -0.448608,-0.09118 -0.193333,-0.193331 z m 11.52,0 c 0.231,-0.09244 0.507,-0.08107 0.613333,0.02525 0.106334,0.106332 -0.08267,0.181964 -0.42,0.16807 C 31.120552,54.359365 31.044725,54.283544 31.3,54.181394 Z m -6.731541,-0.336125 c 0.752652,-0.0676 1.904652,-0.06665 2.56,0.0022 0.655347,0.06876 0.03954,0.124067 -1.368459,0.122905 -1.408,-0.0013 -1.944194,-0.05742 -1.191541,-0.12502 z"
         style="fill:#c2c2c2;stroke-width:0.32" />
      <path
         id="path72"
         d="m 25.203731,58.973679 c 0.398052,-0.07654 0.974052,-0.07364 1.28,0.0065 0.305948,0.08009 -0.01973,0.14272 -0.723731,0.139168 -0.704,-0.0036 -0.954321,-0.06909 -0.556269,-0.145626 z M 20.1,58.661407 c 0.231,-0.09244 0.507,-0.08107 0.613333,0.02525 0.106334,0.106332 -0.08267,0.181964 -0.42,0.16807 C 19.920552,58.839365 19.844725,58.763544 20.1,58.661394 Z m 10.88,0 c 0.231,-0.09244 0.507,-0.08107 0.613333,0.02525 0.106334,0.106332 -0.08267,0.181964 -0.42,0.16807 C 30.800552,58.839365 30.724725,58.763544 30.98,58.661394 Z M 14.464,57.216002 c -0.487757,-0.487757 -0.492014,-1.111472 -0.0096,-1.40961 0.2504,-0.154755 0.307888,-0.05811 0.173596,0.291856 -0.110431,0.287776 0.01938,0.743399 0.288477,1.012493 0.269093,0.269094 0.363774,0.489261 0.210403,0.489261 -0.153371,0 -0.451657,-0.1728 -0.662857,-0.384 z m 22.088118,-0.05383 c 0.308544,-0.308547 0.45761,-0.777148 0.347188,-1.09143 -0.159754,-0.454694 -0.116784,-0.479446 0.246406,-0.141933 0.492752,0.457923 0.114243,1.357875 -0.682861,1.623578 -0.318125,0.106041 -0.291763,-0.0092 0.08927,-0.390215 z M 20.74,54.181407 c 0.231,-0.09244 0.507,-0.08107 0.613333,0.02525 0.106334,0.106332 -0.08267,0.181964 -0.42,0.16807 -0.372781,-0.01536 -0.448608,-0.09118 -0.193333,-0.193331 z m 9.6,0 c 0.231,-0.09244 0.507,-0.08107 0.613333,0.02525 0.106334,0.106332 -0.08267,0.181964 -0.42,0.16807 -0.372781,-0.01536 -0.448608,-0.09118 -0.193333,-0.193331 z"
         style="fill:#c0c0c0;stroke-width:0.32" />
      <path
         id="path68"
         d="m 21.84609,58.658245 c 0.31135,-0.08113 0.74335,-0.0758 0.96,0.01187 0.21665,0.08766 -0.03809,0.154038 -0.56609,0.147517 -0.528,-0.0065 -0.70526,-0.07824 -0.39391,-0.159373 z m 7.04,0 c 0.31135,-0.08113 0.74335,-0.0758 0.96,0.01187 0.21665,0.08766 -0.03809,0.154038 -0.56609,0.147517 -0.528,-0.0065 -0.70526,-0.07824 -0.39391,-0.159373 z M 19.14,58.341407 c 0.231,-0.09244 0.507,-0.08107 0.613333,0.02525 0.106334,0.106332 -0.08267,0.181964 -0.42,0.16807 -0.372781,-0.01536 -0.448608,-0.09118 -0.193333,-0.193331 z m 12.8,0 c 0.230998,-0.09244 0.506998,-0.08107 0.613334,0.02525 0.106333,0.106332 -0.08267,0.181964 -0.42,0.16807 C 31.760552,58.519365 31.684725,58.443544 31.94,58.341394 Z M 15.222857,57.097144 C 14.946286,56.820575 14.72,56.542859 14.72,56.480002 c 0,-0.269005 1.036405,-1.12 1.364019,-1.12 0.197067,0 0.07878,0.207229 -0.262857,0.460512 -0.530176,0.393056 -0.562174,0.55711 -0.21845,1.12 0.479495,0.785229 0.316114,0.852598 -0.379855,0.15663 z m 20.701825,-0.16847 c 0.334563,-0.548115 0.299852,-0.718426 -0.225844,-1.10816 -0.341638,-0.253283 -0.459923,-0.460512 -0.262857,-0.460512 0.580857,0 1.351113,0.941289 1.16568,1.424518 -0.09413,0.245299 -0.373904,0.523805 -0.621722,0.618899 -0.372784,0.143053 -0.382323,0.06109 -0.05526,-0.474745 z M 22.48609,54.178245 c 0.31135,-0.08113 0.74335,-0.0758 0.96,0.01187 0.21665,0.08766 -0.03809,0.154038 -0.56609,0.147517 -0.528,-0.0065 -0.70526,-0.07824 -0.39391,-0.159373 z m 5.76,0 c 0.31135,-0.08113 0.74335,-0.0758 0.96,0.01187 0.21665,0.08766 -0.03809,0.154038 -0.56609,0.147517 -0.528,-0.0065 -0.70526,-0.07824 -0.39391,-0.159373 z"
         style="fill:#bcbcbc;stroke-width:0.32" />
      <path
         id="path66"
         d="m 23.6,58.654168 c 0.396,-0.07627 1.044,-0.07627 1.44,0 0.396,0.07627 0.072,0.138679 -0.72,0.138679 -0.792,0 -1.116,-0.06241 -0.72,-0.138679 z m 2.88,0 c 0.396,-0.07627 1.044,-0.07627 1.44,0 0.396,0.07627 0.072,0.138679 -0.72,0.138679 -0.792,0 -1.116,-0.06241 -0.72,-0.138679 z M 15.744,57.216002 c -0.465894,-0.465895 -0.497525,-1.108067 -0.06766,-1.373735 0.187194,-0.115692 0.231287,0.02611 0.108006,0.347389 -0.131043,0.341495 0.01172,0.703795 0.384827,0.976621 0.326235,0.238547 0.450432,0.433725 0.275994,0.433725 -0.174439,0 -0.489962,-0.1728 -0.701162,-0.384 z m 19.587994,-0.01299 c 0.419225,-0.322263 0.539248,-0.661415 0.38104,-1.07672 -0.187869,-0.493178 -0.154138,-0.530013 0.180816,-0.197469 0.468345,0.464982 0.06177,1.377667 -0.716711,1.608867 -0.251427,0.07467 -0.181741,-0.07593 0.154855,-0.334678 z M 20.1,54.501407 c 0.231,-0.09244 0.507,-0.08107 0.613333,0.02525 0.106334,0.106332 -0.08267,0.181964 -0.42,0.16807 C 19.920552,54.679365 19.844725,54.603544 20.1,54.501394 Z m 10.88,0 c 0.231,-0.09244 0.507,-0.08107 0.613333,0.02525 0.106334,0.106332 -0.08267,0.181964 -0.42,0.16807 -0.372781,-0.01536 -0.448608,-0.09118 -0.193333,-0.193331 z m -6.427137,-0.332359 c 0.568074,-0.07069 1.576074,-0.07185 2.24,-0.0026 0.663925,0.06927 0.199137,0.127111 -1.032863,0.128531 -1.232,0.0013 -1.775212,-0.05526 -1.207137,-0.125948 z"
         style="fill:#bababa;stroke-width:0.32" />
      <path
         id="path62"
         d="m 15.787467,56.778491 c -0.105847,-0.27583 -0.06533,-0.62863 0.09004,-0.784 0.163321,-0.163318 0.282491,0.04824 0.282491,0.501511 0,0.908451 -0.102503,0.986179 -0.372533,0.282489 z M 35.36,56.480002 c 0,-0.406387 0.108,-0.672138 0.24,-0.590557 0.132,0.08158 0.24,0.347331 0.24,0.590557 0,0.243225 -0.108,0.508976 -0.24,0.590557 -0.132,0.08158 -0.24,-0.18417 -0.24,-0.590557 z"
         style="fill:#b8b8b8;stroke-width:0.32" />
      <path
         id="path60"
         d="m 21.38,58.341407 c 0.231,-0.09244 0.507,-0.08107 0.613333,0.02525 0.106334,0.106332 -0.08267,0.181964 -0.42,0.16807 -0.372781,-0.01536 -0.448608,-0.09118 -0.193333,-0.193331 z m 8.32,0 c 0.231,-0.09244 0.507,-0.08107 0.613333,0.02525 0.106334,0.106332 -0.08267,0.181964 -0.42,0.16807 C 29.520552,58.519365 29.444725,58.443544 29.7,58.341394 Z m -13.578399,-1.52608 c -0.216275,-0.563604 0.0969,-1.137117 0.617284,-1.130426 0.247005,0.0032 0.223951,0.104416 -0.06551,0.287706 -0.245647,0.155542 -0.358166,0.513337 -0.250044,0.7951 0.108123,0.28176 0.124587,0.512295 0.03659,0.512295 -0.088,0 -0.240241,-0.209104 -0.338313,-0.464675 z m 18.946069,0.03238 c 0.140119,-0.367888 0.05637,-0.699446 -0.22104,-0.8751 -0.333987,-0.211479 -0.343212,-0.284042 -0.03659,-0.287706 0.584985,-0.007 0.865776,0.927834 0.413491,1.376611 -0.294567,0.292279 -0.330067,0.243581 -0.155863,-0.213805 z M 21.84609,54.498245 c 0.31135,-0.08113 0.74335,-0.0758 0.96,0.01187 0.21665,0.08766 -0.03809,0.154038 -0.56609,0.147517 -0.528,-0.0065 -0.70526,-0.07824 -0.39391,-0.159373 z m 7.04,0 c 0.31135,-0.08113 0.74335,-0.0758 0.96,0.01187 0.21665,0.08766 -0.03809,0.154038 -0.56609,0.147517 -0.528,-0.0065 -0.70526,-0.07824 -0.39391,-0.159373 z"
         style="fill:#b6b6b6;stroke-width:0.32" />
      <path
         id="path58"
         d="m 22.32,58.348072 c 0.22,-0.08877 0.58,-0.08877 0.8,0 0.22,0.08877 0.04,0.161405 -0.4,0.161405 -0.44,0 -0.62,-0.07263 -0.4,-0.161405 z m 6.08,0 c 0.22,-0.08877 0.58,-0.08877 0.8,0 0.22,0.08877 0.04,0.161405 -0.4,0.161405 -0.44,0 -0.62,-0.07263 -0.4,-0.161405 z M 16.88,57.25437 c -0.705175,-0.410727 -0.723017,-1.123341 -0.03474,-1.387456 0.426117,-0.163517 0.453438,-0.115021 0.144745,0.256931 -0.304949,0.367443 -0.236248,0.559546 0.34594,0.967325 0.796833,0.558125 0.440858,0.685542 -0.455947,0.1632 z m 17.304054,-0.1632 c 0.582186,-0.407779 0.650887,-0.599882 0.34594,-0.967325 -0.308695,-0.371952 -0.281373,-0.420448 0.144745,-0.256931 0.711351,0.272969 0.662963,0.996873 -0.0937,1.40183 -0.951277,0.509107 -1.211299,0.392797 -0.396983,-0.177574 z M 20.1,54.821407 c 0.231,-0.09244 0.507,-0.08107 0.613333,0.02525 0.106334,0.106332 -0.08267,0.181964 -0.42,0.16807 C 19.920552,54.999365 19.844725,54.923544 20.1,54.821394 Z m 10.88,0 c 0.231,-0.09244 0.507,-0.08107 0.613333,0.02525 0.106334,0.106332 -0.08267,0.181964 -0.42,0.16807 -0.372781,-0.01536 -0.448608,-0.09118 -0.193333,-0.193331 z m -7.7,-0.313335 c 0.22,-0.08877 0.58,-0.08877 0.8,0 0.22,0.08877 0.04,0.161405 -0.4,0.161405 -0.44,0 -0.62,-0.07263 -0.4,-0.161405 z m 4.16,0 c 0.22,-0.08877 0.58,-0.08877 0.8,0 0.22,0.08877 0.04,0.161405 -0.4,0.161405 -0.44,0 -0.62,-0.07263 -0.4,-0.161405 z"
         style="fill:#b4b4b4;stroke-width:0.32" />
      <path
         id="path56"
         d="m 24.568459,58.325282 c 0.752652,-0.0676 1.904652,-0.06665 2.56,0.0022 0.655347,0.06876 0.03954,0.124067 -1.368459,0.122905 -1.408,-0.0013 -1.944194,-0.05742 -1.191541,-0.12502 z m -7.573223,-1.482823 c -0.278662,-0.335769 -0.231951,-0.54046 0.200818,-0.88 0.498318,-0.390966 0.518283,-0.383849 0.17156,0.06116 -0.300779,0.386041 -0.304515,0.591488 -0.016,0.88 0.207012,0.207014 0.293218,0.376387 0.191568,0.376387 -0.10165,0 -0.348225,-0.196893 -0.547946,-0.437543 z m 17.173151,0.06116 c 0.288512,-0.288512 0.284778,-0.493959 -0.016,-0.88 -0.346723,-0.445005 -0.326758,-0.452122 0.171559,-0.06116 0.432768,0.33954 0.479481,0.544231 0.200819,0.88 -0.199722,0.24065 -0.446298,0.437543 -0.547946,0.437543 -0.101651,0 -0.01546,-0.169373 0.191568,-0.376387 z M 25.0444,54.490376 c 0.48642,-0.07355 1.20642,-0.07159 1.6,0.0044 0.39358,0.07596 -0.0044,0.136135 -0.8844,0.133735 -0.88,-0.0026 -1.20202,-0.06455 -0.7156,-0.138103 z"
         style="fill:#b2b2b2;stroke-width:0.32" />
      <path
         id="path54"
         d="m 17.315236,56.842459 c -0.276455,-0.333107 -0.245771,-0.53494 0.128551,-0.8456 0.270424,-0.224432 0.584199,-0.315539 0.69728,-0.202457 0.11308,0.113078 0.02081,0.2056 -0.205056,0.2056 -0.25311,0 -0.346447,0.245533 -0.243291,0.64 0.197054,0.753539 0.115966,0.797027 -0.377484,0.202457 z m 16.48407,-0.0295 c 0.12704,-0.331065 0.03252,-0.672438 -0.232676,-0.840361 -0.254057,-0.160867 -0.291056,-0.284919 -0.08581,-0.287706 0.198448,-0.0026 0.524224,0.191994 0.723946,0.432643 0.276441,0.333092 0.245849,0.534874 -0.128144,0.845261 -0.415216,0.344602 -0.458151,0.321405 -0.277316,-0.149837 z M 21.7,54.821407 c 0.231,-0.09244 0.507,-0.08107 0.613333,0.02525 0.106334,0.106332 -0.08267,0.181964 -0.42,0.16807 C 21.520552,54.999365 21.444725,54.923544 21.7,54.821394 Z m 7.68,0 c 0.231,-0.09244 0.507,-0.08107 0.613333,0.02525 0.106334,0.106332 -0.08267,0.181964 -0.42,0.16807 -0.372781,-0.01536 -0.448608,-0.09118 -0.193333,-0.193331 z"
         style="fill:#b0b0b0;stroke-width:0.32" />
      <path
         id="path52"
         d="m 22,58.028072 c 0.22,-0.08877 0.58,-0.08877 0.8,0 0.22,0.08877 0.04,0.161405 -0.4,0.161405 -0.44,0 -0.62,-0.07263 -0.4,-0.161405 z m 6.72,0 c 0.22,-0.08877 0.58,-0.08877 0.8,0 0.22,0.08877 0.04,0.161405 -0.4,0.161405 -0.44,0 -0.62,-0.07263 -0.4,-0.161405 z M 17.710425,56.7862 c -0.10422,-0.27159 -0.0997,-0.58359 0.01004,-0.693331 0.109745,-0.109744 0.199534,0.02847 0.199534,0.307133 0,0.278665 0.18,0.579299 0.4,0.66807 0.313299,0.126419 0.311122,0.16688 -0.01005,0.186666 -0.225523,0.01389 -0.495313,-0.196947 -0.599532,-0.468538 z m 15.441594,0.278163 c 0.19361,-0.145398 0.443069,-0.480361 0.554355,-0.744361 0.14217,-0.337264 0.180228,-0.297571 0.127984,0.133481 -0.0409,0.337418 -0.290358,0.672381 -0.554358,0.744362 -0.30873,0.08418 -0.354394,0.03655 -0.127981,-0.133482 z M 22.66,54.821407 c 0.231,-0.09244 0.507,-0.08107 0.613333,0.02525 0.106334,0.106332 -0.08267,0.181964 -0.42,0.16807 -0.372781,-0.01536 -0.448608,-0.09118 -0.193333,-0.193331 z m 5.76,0 c 0.231,-0.09244 0.507,-0.08107 0.613333,0.02525 0.106334,0.106332 -0.08267,0.181964 -0.42,0.16807 -0.372781,-0.01536 -0.448608,-0.09118 -0.193333,-0.193331 z"
         style="fill:#aeaeae;stroke-width:0.32" />
      <path
         id="path50"
         d="m 23.28,58.028072 c 0.22,-0.08877 0.58,-0.08877 0.8,0 0.22,0.08877 0.04,0.161405 -0.4,0.161405 -0.44,0 -0.62,-0.07263 -0.4,-0.161405 z m 4.16,0 c 0.22,-0.08877 0.58,-0.08877 0.8,0 0.22,0.08877 0.04,0.161405 -0.4,0.161405 -0.44,0 -0.62,-0.07263 -0.4,-0.161405 z m -9.12,-0.96 c -0.22,-0.08877 -0.4,-0.349997 -0.4,-0.580499 0,-0.230506 0.18,-0.48817 0.4,-0.572592 0.250738,-0.09622 0.4,0.129827 0.4,0.605763 0,0.417591 0,0.747888 0,0.733994 0,-0.01389 -0.18,-0.0979 -0.4,-0.186666 z m 14.48,-0.58807 c 0,-0.443344 0.15319,-0.659731 0.4,-0.565021 0.22,0.08442 0.4,0.338682 0.4,0.565021 0,0.226339 -0.18,0.480598 -0.4,0.565021 -0.24681,0.09471 -0.4,-0.121677 -0.4,-0.565021 z m -8.231541,-1.67472 c 0.752652,-0.0676 1.904652,-0.06665 2.56,0.0022 0.655347,0.06876 0.03954,0.124067 -1.368459,0.122905 -1.408,-0.0013 -1.944194,-0.05742 -1.191541,-0.12502 z"
         style="fill:#acacac;stroke-width:0.32" />
      <path
         id="path48"
         d="m 25.0444,58.010376 c 0.48642,-0.07355 1.20642,-0.07159 1.6,0.0044 0.39358,0.07596 -0.0044,0.136135 -0.8844,0.133735 -0.88,-0.0026 -1.20202,-0.06455 -0.7156,-0.138103 z M 21.38,57.701407 c 0.231,-0.09244 0.507,-0.08107 0.613333,0.02525 0.106334,0.106332 -0.08267,0.181964 -0.42,0.16807 -0.372781,-0.01536 -0.448608,-0.09118 -0.193333,-0.193331 z m 8.32,0 c 0.231,-0.09244 0.507,-0.08107 0.613333,0.02525 0.106334,0.106332 -0.08267,0.181964 -0.42,0.16807 C 29.520552,57.879365 29.444725,57.803544 29.7,57.701394 Z m -11.018399,-0.88608 c -0.218251,-0.568752 0.101764,-1.144234 0.617284,-1.110061 0.274801,0.01821 0.269533,0.07029 -0.01889,0.186665 -0.22,0.08877 -0.4,0.353405 -0.4,0.588071 0,0.234665 0.18,0.499299 0.4,0.58807 0.313299,0.126419 0.311122,0.16688 -0.01005,0.186666 -0.225523,0.01389 -0.490284,-0.18384 -0.588356,-0.439411 z M 32.312,57.069336 c 0.1804,-0.08947 0.328,-0.354669 0.328,-0.589334 0,-0.234666 -0.1476,-0.499866 -0.328,-0.589335 -0.1804,-0.08946 -0.1444,-0.125465 0.08,-0.08 0.2244,0.04547 0.408,0.346669 0.408,0.669335 0,0.322665 -0.1836,0.623865 -0.408,0.669334 -0.2244,0.04547 -0.2604,0.0095 -0.08,-0.08 z M 21.7,55.141407 c 0.231,-0.09244 0.507,-0.08107 0.613333,0.02525 0.106334,0.106332 -0.08267,0.181964 -0.42,0.16807 C 21.520552,55.319365 21.444725,55.243544 21.7,55.141394 Z m 7.68,0 c 0.231,-0.09244 0.507,-0.08107 0.613333,0.02525 0.106334,0.106332 -0.08267,0.181964 -0.42,0.16807 -0.372781,-0.01536 -0.448608,-0.09118 -0.193333,-0.193331 z"
         style="fill:#aaaaaa;stroke-width:0.32" />
      <path
         id="path46"
         d="m 22.34,57.701407 c 0.231,-0.09244 0.507,-0.08107 0.613333,0.02525 0.106334,0.106332 -0.08267,0.181964 -0.42,0.16807 -0.372781,-0.01536 -0.448608,-0.09118 -0.193333,-0.193331 z m 6.4,0 c 0.231,-0.09244 0.507,-0.08107 0.613333,0.02525 0.106334,0.106332 -0.08267,0.181964 -0.42,0.16807 -0.372781,-0.01536 -0.448608,-0.09118 -0.193333,-0.193331 z m -9.86,-1.133834 c 0,-0.274506 0.236368,-0.589802 0.525262,-0.700659 0.457293,-0.175482 0.46901,-0.128151 0.09055,0.365763 -0.239092,0.312029 -0.47546,0.627325 -0.525262,0.700659 -0.0498,0.07333 -0.09055,-0.09126 -0.09055,-0.365763 z m 13.201658,-0.235731 c -0.328126,-0.525411 -0.314545,-0.598327 0.08302,-0.445763 0.261424,0.100316 0.475318,0.382988 0.475318,0.62816 0,0.593612 -0.09261,0.56336 -0.558342,-0.182397 z"
         style="fill:#a8a8a8;stroke-width:0.32" />
      <path
         id="path44"
         d="m 23.28,57.708072 c 0.22,-0.08877 0.58,-0.08877 0.8,0 0.22,0.08877 0.04,0.161405 -0.4,0.161405 -0.44,0 -0.62,-0.07263 -0.4,-0.161405 z m 4.16,0 c 0.22,-0.08877 0.58,-0.08877 0.8,0 0.22,0.08877 0.04,0.161405 -0.4,0.161405 -0.44,0 -0.62,-0.07263 -0.4,-0.161405 z M 19.540577,56.97949 c -0.380749,-0.240928 -0.387739,-0.377085 -0.04082,-0.795098 0.230233,-0.277414 0.580973,-0.493021 0.779423,-0.479126 0.226716,0.01587 0.212153,0.08525 -0.03918,0.186665 -0.22,0.08877 -0.4,0.353405 -0.4,0.588071 0,0.234665 0.18,0.499299 0.4,0.58807 0.22,0.08877 0.256,0.170567 0.08,0.181767 -0.176,0.0112 -0.52674,-0.110458 -0.779423,-0.270349 z M 31.28,57.068072 c 0.22,-0.08877 0.4,-0.353405 0.4,-0.58807 0,-0.234666 -0.18,-0.499299 -0.4,-0.588071 -0.251335,-0.101414 -0.265898,-0.170793 -0.03918,-0.186665 0.19845,-0.01389 0.54919,0.201712 0.779422,0.479126 0.346922,0.418013 0.339933,0.55417 -0.04082,0.795098 C 31.72674,57.139381 31.376,57.261039 31.2,57.249839 c -0.176,-0.0112 -0.14,-0.093 0.08,-0.181767 z m -7.84,-1.928656 c 0.308,-0.08049 0.812,-0.08049 1.12,0 0.308,0.08049 0.056,0.146346 -0.56,0.146346 -0.616,0 -0.868,-0.06586 -0.56,-0.146346 z m 3.52,0 c 0.308,-0.08049 0.812,-0.08049 1.12,0 0.308,0.08049 0.056,0.146346 -0.56,0.146346 -0.616,0 -0.868,-0.06586 -0.56,-0.146346 z"
         style="fill:#a6a6a6;stroke-width:0.32" />
      <path
         id="path42"
         d="m 25.0444,57.690376 c 0.48642,-0.07355 1.20642,-0.07159 1.6,0.0044 0.39358,0.07596 -0.0044,0.136135 -0.8844,0.133735 -0.88,-0.0026 -1.20202,-0.06455 -0.7156,-0.138103 z M 21.68,57.388072 c 0.22,-0.08877 0.58,-0.08877 0.8,0 0.22,0.08877 0.04,0.161405 -0.4,0.161405 -0.44,0 -0.62,-0.07263 -0.4,-0.161405 z m 7.36,0 c 0.22,-0.08877 0.58,-0.08877 0.8,0 0.22,0.08877 0.04,0.161405 -0.4,0.161405 -0.44,0 -0.62,-0.07263 -0.4,-0.161405 z m -8.8,-0.32 c -0.628259,-0.253507 -0.46799,-1.003363 0.264116,-1.235725 0.365263,-0.115929 0.749263,-0.125632 0.853333,-0.02157 0.10407,0.104071 -0.05078,0.18922 -0.344116,0.18922 -0.619741,0 -0.723354,0.82999 -0.133333,1.06807 0.22,0.08877 0.256,0.161405 0.08,0.161405 -0.176,0 -0.5,-0.07263 -0.72,-0.161405 z m 10.4,0 c 0.590021,-0.23808 0.486408,-1.06807 -0.133333,-1.06807 -0.293334,0 -0.448186,-0.08515 -0.344116,-0.189219 C 30.47884,55.494495 31.68,56.014194 31.68,56.46733 c 0,0.389193 -0.714289,0.847885 -1.226172,0.787408 C 30.336223,57.24085 30.42,57.156843 30.64,57.068072 Z m -8.62,-1.606665 c 0.231,-0.09244 0.507,-0.08107 0.613333,0.02525 0.106334,0.106332 -0.08267,0.181964 -0.42,0.16807 -0.372781,-0.01536 -0.448608,-0.09118 -0.193333,-0.193331 z m 7.04,0 c 0.231,-0.09244 0.507,-0.08107 0.613333,0.02525 0.106334,0.106332 -0.08267,0.181964 -0.42,0.16807 -0.372781,-0.01536 -0.448608,-0.09118 -0.193333,-0.193331 z m -3.69391,-0.323162 c 0.31135,-0.08113 0.74335,-0.0758 0.96,0.01187 0.21665,0.08766 -0.03809,0.154038 -0.56609,0.147517 -0.528,-0.0065 -0.70526,-0.07824 -0.39391,-0.159373 z"
         style="fill:#a4a4a4;stroke-width:0.32" />
      <path
         id="path40"
         d="m 23.12609,57.378245 c 0.31135,-0.08113 0.74335,-0.0758 0.96,0.01187 0.21665,0.08766 -0.03809,0.154038 -0.56609,0.147517 -0.528,-0.0065 -0.70526,-0.07824 -0.39391,-0.159373 z m 4.48,0 c 0.31135,-0.08113 0.74335,-0.0758 0.96,0.01187 0.21665,0.08766 -0.03809,0.154038 -0.56609,0.147517 -0.528,-0.0065 -0.70526,-0.07824 -0.39391,-0.159373 z M 20.88,57.068072 c -0.459707,-0.185494 -0.547439,-1.06807 -0.106172,-1.06807 0.161605,0 0.557605,-0.08287 0.88,-0.184163 0.547432,-0.171991 0.549162,-0.160365 0.02617,0.1759 -0.308,0.198036 -0.56,0.486349 -0.56,0.640701 0,0.154349 0.252,0.34649 0.56,0.426976 0.376541,0.0984 0.40275,0.150231 0.08,0.158202 -0.264,0.0065 -0.66,-0.06077 -0.88,-0.149546 z m 8.96,-0.0087 c 0.308,-0.08049 0.56,-0.272627 0.56,-0.426976 0,-0.154352 -0.252,-0.442665 -0.56,-0.640701 -0.52299,-0.336265 -0.52126,-0.347891 0.02617,-0.1759 0.322395,0.101289 0.718395,0.184163 0.88,0.184163 0.161604,1.6e-5 0.293827,0.200611 0.293827,0.445779 0,0.454518 -0.712159,0.864045 -1.386172,0.797117 C 29.448223,57.222466 29.532,57.139906 29.84,57.059416 Z m -6.556269,-1.605737 c 0.398052,-0.07654 0.974052,-0.07364 1.28,0.0065 0.305948,0.08009 -0.01973,0.14272 -0.723731,0.139168 -0.704,-0.0036 -0.954321,-0.06909 -0.556269,-0.145626 z m 3.84,0 c 0.398052,-0.07654 0.974052,-0.07364 1.28,0.0065 0.305948,0.08009 -0.01973,0.14272 -0.723731,0.139168 -0.704,-0.0036 -0.954321,-0.06909 -0.556269,-0.145626 z"
         style="fill:#a1a1a1;stroke-width:0.32" />
      <path
         id="path38"
         d="m 25.0444,57.370376 c 0.48642,-0.07355 1.20642,-0.07159 1.6,0.0044 0.39358,0.07596 -0.0044,0.136135 -0.8844,0.133735 -0.88,-0.0026 -1.20202,-0.06455 -0.7156,-0.138103 z M 21.68,57.059416 c -1.201779,-0.314057 -0.04707,-1.410621 1.418963,-1.347517 l 0.741037,0.0319 -0.738885,0.208103 c -0.889095,0.250406 -0.965341,0.737657 -0.164795,1.053117 0.534261,0.210528 0.529492,0.228764 -0.05632,0.215372 -0.352,-0.008 -0.892,-0.08048 -1.2,-0.160972 z m 6.90368,-0.02579 c 0.797779,-0.353472 0.725012,-0.831117 -0.164795,-1.081725 -0.725173,-0.20424 -0.723689,-0.208694 0.07995,-0.24 0.84343,-0.03285 2.202449,0.733482 1.877326,1.058605 -0.100557,0.100557 -0.676331,0.259085 -1.279497,0.352282 -0.699516,0.108083 -0.885291,0.07579 -0.512987,-0.08916 z m -3.21759,-1.575379 c 0.31135,-0.08113 0.74335,-0.0758 0.96,0.01187 0.21665,0.08766 -0.03809,0.154038 -0.56609,0.147517 -0.528,-0.0065 -0.70526,-0.07824 -0.39391,-0.159373 z"
         style="fill:#9d9d9d;stroke-width:0.32" />
      <path
         id="path36"
         d="m 22.745755,56.929963 c -0.609074,-0.243452 -0.690994,-0.392723 -0.384,-0.699715 0.531269,-0.53127 6.263418,-0.533072 6.794353,-0.0022 0.304145,0.304144 0.199256,0.459911 -0.484831,0.72 -1.081649,0.411242 -4.880368,0.39961 -5.925522,-0.01814 z m 5.361296,-0.250467 C 28.660235,56.32884 27.540175,56.008741 25.76,56.008741 c -0.704,0 -1.616173,0.09001 -2.027051,0.200026 C 22.492908,56.540795 23.61221,56.9502 25.76,56.9502 c 1.056,0 2.112173,-0.121814 2.347051,-0.270704 z"
         style="fill:#999999;stroke-width:0.32" />
      <path
         id="path34"
         d="M 23.412949,56.679496 C 22.859765,56.32884 23.979825,56.008741 25.76,56.008741 c 0.704,0 1.616173,0.09001 2.027051,0.200026 1.240041,0.332028 0.120739,0.741433 -2.027051,0.741433 -1.056,0 -2.112173,-0.121814 -2.347051,-0.270704 z m 3.070782,-0.25936 c -0.305948,-0.08009 -0.881948,-0.083 -1.28,-0.0065 -0.398052,0.07654 -0.147731,0.142074 0.556269,0.145626 0.704,0.0036 1.029679,-0.05907 0.723731,-0.139168 z"
         style="fill:#959595;stroke-width:0.32" />
      <path
         id="path32"
         d="m 25.203731,56.413679 c 0.398052,-0.07654 0.974052,-0.07364 1.28,0.0065 0.305948,0.08009 -0.01973,0.14272 -0.723731,0.139168 -0.704,-0.0036 -0.954321,-0.06909 -0.556269,-0.145626 z"
         style="fill:#919191;stroke-width:0.32" />
      <path
         id="path28"
         d="m 29.034081,42.224469 c -3.457165,-0.573444 -5.915265,-2.644157 -6.722756,-5.663271 -0.405203,-1.515011 -0.508989,-1.565005 -1.830409,-0.88167 -0.510016,0.26374 -2.194865,0.904307 -3.744109,1.423484 -1.549244,0.519178 -2.946012,1.145104 -3.103929,1.390944 -0.454087,0.706919 0.04688,2.146045 0.747047,2.146045 0.948034,0 1.620075,0.346058 1.620075,0.834237 0,0.359792 -0.864036,0.445763 -4.48,0.445763 -3.7530774,0 -4.48,-0.07727 -4.48,-0.476217 0,-0.308867 0.4539674,-0.548813 1.2918259,-0.682791 0.7753674,-0.123987 1.4789968,-0.473795 1.7600001,-0.874982 0.658313,-0.939875 0.598809,-1.594816 -0.1276359,-1.404845 C 8.9895482,38.73604 5.7955242,38.111131 4.3788493,37.388398 1.3511784,35.843796 0.32,34.576088 0.32,32.398542 c 0,-2.264316 2.4833632,-5.176321 6.88,-8.067525 l 1.6,-1.052151 -1.7261958,1.545793 c -0.9494074,0.850187 -2.6414074,2.618417 -3.76,3.9294 C 1.587821,30.776901 1.28,31.32232 1.28,32.357697 c 0,1.857437 1.3859167,3.260291 3.7456128,3.791389 C 7.7649872,36.76564 12.795899,36.631281 15.84,35.860273 21.039011,34.54347 34.133914,27.158827 45.92,18.897179 c 1.056,-0.74022 1.488,-0.976764 0.96,-0.525653 -0.957258,0.817858 -0.960086,0.830502 -0.989757,4.424338 -0.04773,5.781137 -1.630483,11.045993 -4.418336,14.697136 -2.647126,3.466835 -7.934937,5.478368 -12.437826,4.731469 z m 6.423045,-2.243565 c 1.136151,-0.567741 2.36857,-1.495786 2.93337,-2.208906 2.264896,-2.859661 4.02815,-8.196349 4.391309,-13.290792 l 0.205216,-2.878795 -1.093511,0.828048 c -5.163846,3.910262 -11.847272,8.357924 -15.5914,10.375705 l -1.69789,0.915024 0.209716,1.299408 c 0.651828,4.038743 2.720225,5.903175 6.574953,5.926593 1.728068,0.0105 2.462705,-0.163991 4.068237,-0.966285 z"
         style="fill:#dc0000;stroke-width:0.32" />
      <path
         id="path24"
         d="m 12.643496,27.111341 c 0.604064,-2.507824 2.018261,-11.530775 1.868447,-11.921185 -0.09999,-0.260569 -0.747651,-0.564246 -1.439246,-0.674836 -0.71396,-0.114168 -1.206184,-0.355427 -1.138843,-0.558197 0.0776,-0.233644 1.630872,-0.387906 4.492375,-0.446153 C 20.004837,13.43813 20.8,13.50337 20.8,13.870071 c 0,0.27478 -0.491239,0.526685 -1.269901,0.651198 -0.732448,0.117123 -1.399068,0.444416 -1.575099,0.773333 -0.384173,0.717834 -1.704441,7.648169 -1.572749,8.255659 0.160946,0.742444 8.110472,-4.082442 10.017749,-6.080174 2.04747,-2.144573 3.809012,-3.301243 6.113491,-4.014261 C 36.104554,12.344733 41.852643,7.1814559 42.950838,4.08038 43.139942,3.5463979 43.213706,3.5380673 43.224921,3.2772752 43.237865,2.9762799 43.093651,2.7997856 42.897481,2.5611345 42.29354,1.8145337 38.692502,2.9348612 35.2,4.1780088 32.338474,5.1965618 30.468921,5.8916402 29.44,6.31951 28.824,6.5756693 27.996,6.9145724 27.6,7.0726274 c -1.842819,0.7355223 -2.565469,1.0555972 -3.68,1.6299383 -0.66,0.3401117 -1.2,0.5477392 -1.2,0.4613946 0,-0.1428518 1.483622,-1.0393812 4.96,-2.99725 1.397406,-0.787008 7.611296,-3.8462739 8.64,-4.2537054 2.995165,-1.18627371 4.091382,-1.40687205 6.48,-1.30401038 1.189373,0.0512183 2,1.13676228 2,2.67828618 0,2.8619393 -2.928141,6.4193273 -8.8,10.6910863 -5.30975,3.862827 -15.987251,10.335066 -20.563923,12.464961 -2.783026,1.295167 -2.953466,1.335938 -2.792581,0.668013 z"
         style="fill:#000000;stroke-width:0.32" />
    </g>
  </g>
</svg>
